<?xml version="1.0" encoding="UTF-8" standalone="no"?>
<svg
   xmlns:dc="http://purl.org/dc/elements/1.1/"
   xmlns:cc="http://creativecommons.org/ns#"
   xmlns:rdf="http://www.w3.org/1999/02/22-rdf-syntax-ns#"
   xmlns:svg="http://www.w3.org/2000/svg"
   xmlns="http://www.w3.org/2000/svg"
   xmlns:xlink="http://www.w3.org/1999/xlink"
   xmlns:sodipodi="http://sodipodi.sourceforge.net/DTD/sodipodi-0.dtd"
   xmlns:inkscape="http://www.inkscape.org/namespaces/inkscape"
   version="1.1"
   id="Layer_1"
   x="0px"
   y="0px"
   viewBox="0 0 106 106"
   enable-background="new 0 0 253 252.7"
   xml:space="preserve"
   sodipodi:docname="logo_favicon.svg"
   width="106"
   height="106"
   inkscape:version="0.92.5 (2060ec1f9f, 2020-04-08)"
   inkscape:export-filename="/home/km/git/mostlyanimals/public/images/favicon-512.png"
   inkscape:export-xdpi="463.70001"
   inkscape:export-ydpi="463.70001"><metadata
   id="metadata43"><rdf:RDF><cc:Work
       rdf:about=""><dc:format>image/svg+xml</dc:format><dc:type
         rdf:resource="http://purl.org/dc/dcmitype/StillImage" /><dc:title /></cc:Work></rdf:RDF></metadata><defs
   id="defs41">
	<defs
   id="defs3">
		<rect
   x="0"
   height="252.7"
   width="253"
   y="0"
   id="SVGID_1_" />
	</defs>
	<clipPath
   id="SVGID_2_">
		<use
   height="100%"
   width="100%"
   y="0"
   x="0"
   style="overflow:visible"
   id="use5"
   overflow="visible"
   xlink:href="#SVGID_1_" />
	</clipPath>
	
</defs><sodipodi:namedview
   pagecolor="#ffffff"
   bordercolor="#666666"
   borderopacity="1"
   objecttolerance="10"
   gridtolerance="10"
   guidetolerance="10"
   inkscape:pageopacity="0"
   inkscape:pageshadow="2"
   inkscape:window-width="3836"
   inkscape:window-height="2117"
   id="namedview39"
   showgrid="false"
   fit-margin-top="0"
   fit-margin-left="0"
   fit-margin-right="0"
   fit-margin-bottom="0"
   inkscape:zoom="8"
   inkscape:cx="34.206559"
   inkscape:cy="61.16125"
   inkscape:window-x="1920"
   inkscape:window-y="41"
   inkscape:window-maximized="0"
   inkscape:current-layer="Layer_1" />
<rect
   id="rect127"
   width="108.5"
   height="108.625"
   x="-0.625"
   y="-1.25"
   style="fill:#ffd5e5;stroke-width:1.01464689" /><path
   style="fill:none;stroke:#000000;stroke-width:1.60000002;stroke-miterlimit:10"
   inkscape:connector-curvature="0"
   id="path8"
   d="m 88.7,125.6 c 2.6,-1.7 5.9,-2.1 9,-0.8 3,1.3 4.9,3.9 5.5,6.9 M 85.3,120.3 c 4.3,-2.8 9.8,-3.4 14.9,-1.2 4.9,2.1 8.1,6.4 9.2,11.3 0,0.2 0.1,0.3 0.1,0.5 M 79,115 c 6.7,-5.3 16,-6.9 24.3,-3.2 8.4,3.7 13.6,11.6 14.2,20.1 M 144.8,96.8 139,88.2 c 0,0 0.1,-9.3 -9.8,-18.8 -2.8,-2.7 -6.6,14.8 4.5,22.4 l 5.8,8.6 z m -69.2,66.6 c 0,0 0.1,-24.2 13.6,-23.7 54.8,1.7 48.8,-8.9 50.3,-27.5 m -68.1,48.5 c 0,0 -2.2,-30.8 21.4,-29.7 23.6,1.1 40.5,4.5 41.1,-18.9 l 33,0.1 v 26.2 c 0,11.2 -5.6,21.8 -30.2,22.4 -34.6,0.8 -47.2,0.2 -47.2,0.2 0,0 -18.2,-1.4 -18.2,9.7 z m 85.5,-63.9 5.8,-8.6 c 0,0 -0.1,-9.3 9.8,-18.8 2.8,-2.7 6.6,14.8 -4.5,22.4 l -5.8,8.6 z m -17.4,15.4 c 0.2,-5.9 5,-10.6 11,-10.6 5.9,0 10.8,4.7 11,10.6 m -27.6,-0.1 c 0.2,-8.9 7.5,-16.1 16.5,-16.1 9,0 16.3,7.2 16.5,16.1 m -78.2,13.5 c 2.6,-1.7 5.9,-2.1 9,-0.8 3,1.3 4.9,3.9 5.5,6.9 M 85.3,120.3 c 4.3,-2.8 9.8,-3.4 14.9,-1.2 4.9,2.1 8.1,6.4 9.2,11.3 0,0.2 0.1,0.3 0.1,0.5 M 79,115 c 6.7,-5.3 16,-6.9 24.3,-3.2 8.4,3.7 13.6,11.6 14.2,20.1 M 144.8,96.8 139,88.2 c 0,0 0.1,-9.3 -9.8,-18.8 -2.8,-2.7 -6.6,14.8 4.5,22.4 l 5.8,8.6 z m -69.2,66.6 c 0,0 0.1,-23.8 13.6,-23.7 m -17.8,21 c 0,0 -2.2,-30.8 21.4,-29.7 23.6,1.1 40.5,4.5 41.1,-18.9 l 33,0.1 v 26.2 c 0,11.2 -5.6,21.8 -30.2,22.4 -34.6,0.8 -47.2,0.2 -47.2,0.2 0,0 -18.2,-1.4 -18.2,9.7 z m 85.5,-63.9 5.8,-8.6 c 0,0 -0.1,-9.3 9.8,-18.8 2.8,-2.7 6.6,14.8 -4.5,22.4 l -5.8,8.6 z m -17.4,15.4 c 0.2,-5.9 5,-10.6 11,-10.6 5.9,0 10.8,4.7 11,10.6 m -27.6,-0.1 c 0.2,-8.9 7.5,-16.1 16.5,-16.1 9,0 16.3,7.2 16.5,16.1"
   stroke-miterlimit="10"
   clip-path="url(#SVGID_2_)"
   data-ignore="true"
   transform="matrix(1.8704546,0,0,1.8704546,-229.07573,-121.80511)" />
<path
   data-ignore="true"
   stroke-miterlimit="10"
   d="m 26.615409,28.953533 -7.85591,5.237272 m -2.244544,-22.258409 -4.863181,3.366819 m 9.165227,2.0575 -6.546591,4.489092 m 10.100455,0.74818 -7.85591,5.237273 m 62.847271,1.122273 7.85591,5.237272 m 2.244544,-22.258409 4.863183,3.366819 m -9.165227,2.0575 6.546591,4.489092 m -10.100455,0.74818 7.855908,5.237273"
   id="path12"
   inkscape:connector-curvature="0"
   style="fill:none;stroke:#000000;stroke-width:1.90599322;stroke-miterlimit:10" />

<path
   style="stroke-width:0.1169034"
   d="m -97.13221,192.4481 c 0.0436,-2.78084 0.0931,-9.02786 0.11026,-13.88228 0.0315,-8.93353 0.0638,-9.77563 0.53965,-14.08686 1.667429,-15.10631 6.945473,-27.2827 14.853637,-34.2672 5.245218,-4.63258 10.854291,-7.12903 18.397277,-8.18815 2.628451,-0.36906 8.474018,-0.28965 17.518888,0.23798 4.105859,0.23953 7.510263,0.41985 7.565344,0.40073 0.146214,-0.0508 -0.626773,-1.87255 -1.2548,-2.95737 -1.977282,-3.41543 -5.263997,-6.0932 -8.868031,-7.225 -1.670324,-0.52454 -2.629886,-0.68144 -4.574514,-0.74798 -1.478276,-0.0506 -2.150532,-0.0209 -3.09794,0.1366 -1.975582,0.32852 -3.888056,1.0048 -5.494087,1.94278 -0.430937,0.25167 -0.826952,0.45612 -0.880028,0.45431 -0.05308,-0.002 -0.433768,-0.53441 -0.845974,-1.18357 l -0.749467,-1.18027 0.281855,-0.21717 c 0.526498,-0.40567 3.08283,-1.60489 4.198114,-1.96942 2.251787,-0.73599 3.187246,-0.87233 6.020526,-0.87742 2.039608,-0.004 2.789619,0.0395 3.624005,0.20841 2.645708,0.53575 5.412779,1.71828 7.570317,3.2352 1.382937,0.97232 3.315054,2.90481 4.324775,4.32559 0.962156,1.35385 2.058949,3.51354 2.582562,5.08531 l 0.389448,1.16903 1.451108,0.0784 c 7.785851,0.42072 18.672988,0.43488 21.879978,0.0285 0.669266,-0.0849 0.666867,-0.0689 0.320261,-2.11185 -1.874879,-11.05031 -8.150267,-21.11062 -17.256123,-27.663957 -5.890417,-4.239233 -12.582112,-6.885497 -19.917938,-7.876639 -1.957339,-0.264455 -7.654806,-0.301404 -9.586078,-0.06218 -8.165449,1.011505 -15.127998,3.77642 -21.486211,8.532436 -0.469018,0.35084 -0.872621,0.61803 -0.896894,0.59375 -0.02428,-0.0243 -0.435057,-0.54233 -0.912853,-1.151247 l -0.86872,-1.107112 0.947288,-0.712599 c 5.02105,-3.77708 10.998504,-6.584595 17.138412,-8.049639 3.8376,-0.915689 6.222032,-1.180221 10.638212,-1.180221 3.712906,0 4.628249,0.07059 7.679691,0.592261 7.808251,1.334898 15.570896,4.987425 21.854241,10.282998 1.321909,1.114099 3.875268,3.654069 5.108842,5.082059 4.554269,5.27203 8.00327,11.93275 9.715689,18.76301 0.427709,1.70598 1.000058,4.77384 1.000058,5.36046 v 0.33955 l 0.730645,-0.0815 c 1.8883954,-0.21074 5.5852792,-1.01184 7.5988182,-1.64662 4.2618962,-1.3436 7.8710483,-3.3708 10.5763518,-5.94059 4.17521,-3.96604 6.933195,-9.78577 8.208144,-17.32034 0.496194,-2.9324 0.678272,-4.888092 0.945081,-10.151751 0.183042,-3.610812 0.618372,-6.028821 1.634518,-9.078861 1.471465,-4.416638 3.693365,-8.160194 6.994179,-11.784101 L 29.673283,65.391335 28.988639,64.36771 C 28.61207,63.804703 26.423297,60.556656 24.124673,57.149811 l -4.179309,-6.194339 -0.96444,-0.723721 C 18.450481,49.833705 17.83236,49.350843 17.607319,49.158722 l -0.409162,-0.34931 2.419713,-0.0031 2.419714,-0.0031 4.743426,7.043432 c 2.608875,3.873884 4.836866,7.170886 4.951083,7.326667 l 0.207656,0.283238 0.935378,-0.713439 c 1.466566,-1.118594 3.229398,-2.19766 5.088115,-3.114531 l 1.709828,-0.84343 -3.311181,-4.90329 c -1.821158,-2.696811 -3.313921,-4.942746 -3.317263,-4.990968 -0.0033,-0.04822 0.772391,-0.08767 1.723833,-0.08767 h 1.72989 l 3.024151,4.495655 c 1.663289,2.472613 3.060463,4.473223 3.104825,4.445802 0.04437,-0.02742 0.811557,-0.233023 1.704872,-0.456892 5.923229,-1.484398 12.202718,-1.271964 17.970462,0.607937 l 1.020206,0.332519 3.176476,-4.712513 3.176476,-4.712508 h 1.73031 c 0.951665,0 1.73031,0.0295 1.73031,0.06554 0,0.03605 -1.477284,2.25243 -3.282857,4.925304 -1.805573,2.672873 -3.302908,4.918617 -3.327411,4.990539 -0.06816,0.200027 7.308159,5.149458 7.455223,5.002387 0.06613,-0.06613 2.368918,-3.45139 5.117284,-7.522782 l 4.997036,-7.402529 2.440568,-0.03017 2.440569,-0.03017 -0.35071,0.293922 c -0.192891,0.161663 -0.813273,0.648693 -1.37863,1.082303 l -1.027932,0.788382 -5.119515,7.598721 c -2.815748,4.179297 -5.157792,7.664831 -5.204563,7.74563 -0.05307,0.09165 0.21191,0.487382 0.704469,1.052131 3.71082,4.254624 6.229726,9.373193 7.349031,14.933631 0.660271,3.280069 0.644065,2.515275 0.642839,30.36061 -0.0012,15.90351 -0.04607,26.3906 -0.119503,27.62348 -0.808013,13.56467 -5.985758,23.18008 -16.128929,29.95242 -8.333624,5.56414 -20.101469,8.85555 -35.421734,9.90731 -8.869448,0.60892 -55.765423,1.21513 -77.039344,0.99589 -10.11315,-0.10425 -13.196401,-0.16956 -19.639773,-0.416 -2.198802,-0.0842 -6.052794,0.078 -8.650852,0.36399 -12.67881,1.39533 -20.173595,6.08381 -21.556777,13.48514 -0.0914,0.48931 -0.203513,1.34996 -0.249039,1.91255 l -0.08284,1.0229 h -1.457237 -1.45723 z m 3.505943,-5.36419 c 0.558675,-0.76138 2.544033,-2.59183 3.551455,-3.27435 l 0.924067,-0.62606 0.07924,-1.51973 c 0.486761,-9.34609 2.164769,-18.33944 4.700498,-25.19269 0.862629,-2.3314 2.588848,-5.93293 3.670103,-7.65717 3.171386,-5.05733 7.141253,-8.40044 11.711126,-9.86224 2.77289,-0.88697 4.212731,-1.00413 10.025448,-0.81582 6.149329,0.19921 26.476855,0.2027 31.096306,0.006 16.402309,-0.70077 26.885176,-2.02591 35.2725163,-4.45876 C 19.084597,130.2951 25.12007,125.22704 27.732909,116.613 c 1.183145,-3.90056 1.675319,-8.1761 2.09326,-18.1838 0.09934,-2.37899 0.231013,-5.19344 0.292586,-6.254331 0.06158,-1.0609 0.112453,-2.126182 0.113088,-2.367295 l 0.0012,-0.438389 h -3.717534 -3.717456 l -0.141295,2.133492 c -0.732283,11.058083 -3.7369,19.280853 -9.047876,24.761453 -4.8811018,5.03701 -11.5396981,7.94668 -21.096079,9.21857 -4.225364,0.56235 -6.117138,0.65179 -13.775778,0.65114 -7.826692,-7e-4 -8.039249,-0.009 -22.620808,-0.84122 -7.808019,-0.44588 -10.266109,-0.54553 -13.619248,-0.55212 -3.736385,-0.008 -4.248937,0.016 -5.903623,0.26821 -3.681644,0.56125 -6.641426,1.461 -9.64453,2.93183 -7.538315,3.69201 -13.104526,10.41999 -16.761889,20.26031 -2.314149,6.22636 -3.802023,14.05951 -4.213484,22.1824 -0.123771,2.44345 -0.143228,17.18664 -0.02266,17.18203 0.03977,-9e-4 0.230146,-0.21785 0.423022,-0.48071 z m 8.543145,-5.99082 c 2.18017,-0.91948 5.762372,-1.91547 8.641651,-2.40271 5.164199,-0.87392 9.280605,-1.03937 18.003124,-0.72361 9.214495,0.33356 40.184243,0.34557 59.8545438,0.0232 16.4372892,-0.26937 27.5796282,-0.52991 30.5117902,-0.71344 20.582913,-1.28837 34.631382,-6.69573 42.367887,-16.30771 3.303386,-4.10419 5.691115,-9.63204 6.66415,-15.42819 0.679946,-4.05024 0.651911,-2.73829 0.651911,-30.51178 V 89.543882 l -24.131738,-0.09078 c -17.504815,-0.06584 -24.153566,-0.05547 -24.211177,0.03776 -0.103755,0.167853 -0.183342,1.531169 -0.460459,7.885538 -0.482564,11.0658 -0.827114,14.49857 -1.869706,18.62797 -2.461588,9.7496 -8.461865,15.68945 -19.749252,19.55037 -9.8020269,3.35282 -23.079471,5.0827 -43.090878,5.61414 -5.551025,0.14741 -21.961889,0.0735 -27.589202,-0.12426 -2.138766,-0.0752 -3.608671,-0.0714 -4.559233,0.012 -6.556814,0.57407 -11.72496,4.63146 -15.580899,12.23223 -2.633576,5.19126 -4.538146,11.7862 -5.628666,19.49035 -0.498833,3.52406 -0.981741,8.7093 -0.81111,8.7093 0.02749,0 0.471731,-0.17789 0.987263,-0.39532 z M 71.382886,86.341952 c 0,-0.466881 -0.385792,-2.223769 -0.72161,-3.286209 -0.424393,-1.342639 -1.511537,-3.616266 -2.26387,-4.734588 -2.872291,-4.269586 -7.148103,-7.154337 -12.253288,-8.266883 -1.015445,-0.221291 -1.547894,-0.258851 -3.699584,-0.260977 -2.197503,-0.0022 -2.674317,0.03187 -3.793433,0.270795 -2.639539,0.563529 -5.247291,1.685511 -7.312391,3.146134 -1.403376,0.992597 -3.576132,3.157958 -4.541849,4.526414 -0.791587,1.121682 -2.054542,3.597921 -2.474411,4.851492 -0.315196,0.941044 -0.813779,3.103471 -0.815203,3.535669 l -0.0012,0.32083 9.966015,0.03054 c 5.481308,0.01683 14.003567,0.0434 18.938352,0.05911 8.729633,0.0278 8.972336,0.02258 8.972336,-0.192332 z M 81.49896,85.656843 c -0.20691,-2.286097 -0.950367,-5.368995 -1.866783,-7.740911 -0.970251,-2.511244 -2.837645,-5.697863 -4.642937,-7.922959 -1.005205,-1.238956 -2.97117,-3.178316 -4.309433,-4.251105 -7.305154,-5.856034 -16.894178,-7.914296 -25.87007,-5.552953 -2.951752,0.776535 -2.952782,0.777081 -8.347477,4.444218 -2.704069,1.838137 -4.969492,3.342071 -5.034269,3.342071 -0.143145,0 -1.132584,1.05857 -2.127375,2.275989 -1.834937,2.245593 -3.777077,5.708243 -4.768325,8.501439 -0.756562,2.131899 -1.450712,5.279554 -1.56771,7.108793 l -0.03365,0.526065 3.765246,0.03084 3.76525,0.03084 0.05348,-0.264652 c 0.02942,-0.145558 0.137573,-0.764409 0.240365,-1.375228 1.210406,-7.192503 6.349925,-13.568851 13.188166,-16.361902 2.539831,-1.037384 4.886189,-1.524358 7.758213,-1.610178 2.039636,-0.06094 3.525327,0.05105 5.161928,0.38909 5.720541,1.181611 10.810655,4.64572 14.020671,9.541859 0.894358,1.36414 1.975212,3.596688 2.478058,5.118545 0.39158,1.185101 0.943166,3.706205 0.943166,4.310887 v 0.36525 h 3.637742 3.637743 z"
   id="path3776"
   inkscape:connector-curvature="0" /><path
   style="stroke-width:0.1169034"
   d="m -25.805692,122.83213 c -0.0317,-0.11253 -0.09212,-0.3887 -0.134316,-0.61374 -0.0422,-0.22504 -0.256729,-1.02671 -0.476751,-1.78147 -1.648549,-5.65515 -5.05054,-10.79078 -9.484407,-14.3176 -6.202053,-4.9333 -14.52282,-7.11297 -22.186471,-5.8119 -3.253246,0.55232 -6.366797,1.66141 -9.195852,3.27568 -0.722017,0.41198 -1.347048,0.74906 -1.388955,0.74906 -0.08776,0 -1.667062,-2.345 -1.610548,-2.39139 0.302824,-0.24855 2.382101,-1.39075 3.498412,-1.92176 8.580817,-4.08171 18.267758,-4.00895 27.003035,0.20284 4.84699,2.33701 8.948168,5.92978 12.0734,10.57668 1.220089,1.81415 2.880363,5.13041 3.58107,7.15288 0.534633,1.54315 1.285815,4.3462 1.285815,4.79807 v 0.28722 h -1.453415 c -1.284325,0 -1.460114,-0.0238 -1.511017,-0.20457 z"
   id="path3778"
   inkscape:connector-curvature="0" /><path
   style="stroke-width:0.1169034"
   d="m 31.220636,46.231169 -1.763925,-2.630326 -0.0682,-1.285938 C 29.23053,39.335948 28.176246,34.898508 26.74404,31.184534 l -0.370113,-0.959781 -3.497214,2.333395 c -1.923466,1.283365 -3.522205,2.333391 -3.55275,2.333391 -0.111723,0 -1.009107,-1.409581 -0.954079,-1.498621 0.03122,-0.05052 1.664586,-1.162555 3.629693,-2.471188 1.965107,-1.308632 3.572922,-2.424343 3.572922,-2.479356 0,-0.214529 -1.99553,-4.072141 -2.106506,-4.072141 -0.06481,0 -1.535933,0.946347 -3.26915,2.102993 l -3.151298,2.102993 -0.471107,-0.693739 c -0.259111,-0.381556 -0.47111,-0.741112 -0.47111,-0.799017 0,-0.05791 1.446681,-1.068431 3.214843,-2.245616 1.768165,-1.177188 3.214845,-2.161992 3.214845,-2.188455 0,-0.08469 -1.879607,-3.00092 -2.15839,-3.348767 l -0.268495,-0.33502 -2.572597,1.767086 c -1.414928,0.971897 -2.624394,1.767087 -2.687701,1.767087 -0.06331,0 -0.32827,-0.324371 -0.588805,-0.720821 l -0.4737,-0.72082 2.475165,-1.689285 c 1.361341,-0.929106 2.540314,-1.750197 2.619939,-1.824645 0.113087,-0.105734 -0.09161,-0.430976 -0.935228,-1.486047 -1.552563,-1.941685 -1.99047,-2.443608 -2.12766,-2.438691 -0.06675,0.0023 -0.90828,0.551014 -1.870054,1.219158 l -1.748682,1.214806 -0.51257,-0.764063 c -0.281914,-0.420234 -0.468228,-0.802821 -0.414032,-0.85019 0.0542,-0.04737 0.703515,-0.49846 1.442927,-1.002422 0.739414,-0.503963 1.465246,-1.008319 1.612956,-1.120793 L 14.594656,12.11147 13.050715,10.521234 11.506774,8.930998 11.180742,9.243357 c -1.022543,0.979659 -1.9948973,4.043828 -2.4631079,7.761961 -0.2263379,1.797386 -0.1907211,6.785035 0.062189,8.709304 0.9055717,6.889964 3.2628029,12.730851 7.0247959,17.406445 1.155868,1.436572 3.480019,3.675429 4.96033,4.77829 l 1.212967,0.903687 h -2.421543 -2.421542 l -1.42509,-1.432065 C 14.020278,45.673237 13.039531,44.472799 11.714748,42.481081 8.6056528,37.806774 6.6738321,32.353206 5.8583774,25.948429 5.5991735,23.912584 5.5613275,18.637901 5.7925318,16.771512 c 0.4235515,-3.41911 1.0758133,-5.875199 2.0800752,-7.83253 1.1893542,-2.318081 2.795372,-3.29848 4.50375,-2.749333 0.568913,0.182873 0.847172,0.421682 2.911436,2.49867 6.953371,6.996224 12.088419,15.076521 14.898255,23.443264 1.079453,3.214243 1.907478,6.95743 2.117026,9.570272 l 0.08211,1.023598 2.035649,3.00957 2.03565,3.009571 -0.561263,0.02757 c -0.308695,0.01515 -1.089873,0.04147 -1.735954,0.05845 l -1.174691,0.03088 z"
   id="path3780"
   inkscape:connector-curvature="0" /><path
   style="stroke-width:0.1169034"
   d="m 69.761995,48.73764 c 0,-0.03597 0.911935,-1.417021 2.02652,-3.068993 l 2.026521,-3.003582 0.07992,-1.136924 c 0.225739,-3.211404 1.402082,-7.86689 3.050491,-12.072611 0.75854,-1.935315 2.890259,-6.228615 4.02114,-8.098604 2.498354,-4.131194 5.058501,-7.511562 8.612931,-11.372343 2.004461,-2.177239 3.196108,-3.307618 3.85217,-3.654108 0.663039,-0.35018 1.920791,-0.347211 2.590358,0.0061 2.164359,1.142128 3.742364,5.026685 4.381444,10.78563 0.21181,1.90883 0.17657,6.454433 -0.0653,8.475498 -1.080752,9.01808 -4.405118,16.311608 -9.959363,21.85043 l -1.358666,1.354894 h -2.400434 c -1.320235,0 -2.37851,-0.01977 -2.351722,-0.04394 0.02679,-0.02416 0.60108,-0.457775 1.276196,-0.963568 1.409461,-1.05596 3.830414,-3.411252 4.912436,-4.77921 1.842828,-2.329803 3.823565,-5.857909 4.845358,-8.630607 0.977041,-2.65122 1.755503,-5.972748 2.114483,-9.021805 0.23571,-2.002238 0.269243,-6.126159 0.06513,-8.007884 C 97.09277,13.772381 96.130609,10.569353 95.06106,9.29827 l -0.318141,-0.378095 -1.612054,1.608957 c -0.886612,0.884928 -1.589942,1.644717 -1.562933,1.688421 0.02692,0.0437 0.760676,0.570311 1.630345,1.170238 0.869687,0.599927 1.58066,1.120074 1.579976,1.155884 -7.16e-4,0.03581 -0.226477,0.387522 -0.501753,0.781584 l -0.500542,0.716482 -1.748651,-1.214786 -1.74865,-1.214787 -0.451578,0.498308 c -0.451953,0.498652 -1.855023,2.230922 -2.449251,3.023854 l -0.315714,0.421286 0.631854,0.419526 c 0.34752,0.230741 1.501265,1.018667 2.563877,1.750948 l 1.93201,1.331421 -0.473898,0.721125 c -0.260649,0.396621 -0.522848,0.721127 -0.582665,0.721127 -0.05986,0 -1.182389,-0.7375 -2.494584,-1.638889 -1.312199,-0.901391 -2.458132,-1.66664 -2.546519,-1.700557 -0.103039,-0.03955 -0.371196,0.244407 -0.747341,0.791341 -1.082839,1.574505 -1.810676,2.81264 -1.696131,2.885327 1.590784,1.009469 6.220727,4.169959 6.220727,4.246384 0,0.05795 -0.211985,0.417543 -0.471096,0.799098 l -0.471108,0.693738 -3.148906,-2.101393 -3.148906,-2.101397 -0.287943,0.495243 c -0.454976,0.782527 -1.868408,3.705608 -1.814535,3.752593 0.02679,0.02336 1.640033,1.102214 3.585014,2.397458 1.944981,1.295247 3.536329,2.383751 3.536329,2.418899 0,0.09451 -0.934566,1.453919 -0.99955,1.453919 -0.03058,0 -1.54106,-0.989718 -3.356616,-2.199368 -1.815555,-1.20965 -3.360058,-2.234437 -3.432231,-2.277305 -0.08541,-0.05072 -0.33602,0.482544 -0.717719,1.527173 -1.30924,3.583118 -2.109931,7.048121 -2.370673,10.259143 l -0.122814,1.51253 -1.713303,2.544665 -1.713304,2.544666 H 71.49208 c -0.9515,0 -1.730002,-0.02944 -1.730002,-0.06541 z"
   id="path3782"
   inkscape:connector-curvature="0" /></svg>