<?xml version="1.0" encoding="UTF-8" standalone="no"?>
<svg
   xmlns:dc="http://purl.org/dc/elements/1.1/"
   xmlns:cc="http://creativecommons.org/ns#"
   xmlns:rdf="http://www.w3.org/1999/02/22-rdf-syntax-ns#"
   xmlns:svg="http://www.w3.org/2000/svg"
   xmlns="http://www.w3.org/2000/svg"
   xmlns:xlink="http://www.w3.org/1999/xlink"
   xmlns:sodipodi="http://sodipodi.sourceforge.net/DTD/sodipodi-0.dtd"
   xmlns:inkscape="http://www.inkscape.org/namespaces/inkscape"
   version="1.1"
   id="Layer_1"
   x="0px"
   y="0px"
   viewBox="0 0 105.76596 102.38797"
   enable-background="new 0 0 253 252.7"
   xml:space="preserve"
   sodipodi:docname="logo_plain.svg"
   width="105.76596"
   height="102.38797"
   inkscape:version="0.92.5 (2060ec1f9f, 2020-04-08)"><metadata
   id="metadata43"><rdf:RDF><cc:Work
       rdf:about=""><dc:format>image/svg+xml</dc:format><dc:type
         rdf:resource="http://purl.org/dc/dcmitype/StillImage" /><dc:title></dc:title></cc:Work></rdf:RDF></metadata><defs
   id="defs41">
	<defs
   id="defs3">
		<rect
   x="0"
   height="252.7"
   width="253"
   y="0"
   id="SVGID_1_" />
	</defs>
	<clipPath
   id="SVGID_2_">
		<use
   height="100%"
   width="100%"
   y="0"
   x="0"
   style="overflow:visible"
   id="use5"
   overflow="visible"
   xlink:href="#SVGID_1_" />
	</clipPath>
	
</defs><sodipodi:namedview
   pagecolor="#ff7dff"
   bordercolor="#666666"
   borderopacity="1"
   objecttolerance="10"
   gridtolerance="10"
   guidetolerance="10"
   inkscape:pageopacity="0"
   inkscape:pageshadow="2"
   inkscape:window-width="1916"
   inkscape:window-height="2117"
   id="namedview39"
   showgrid="false"
   fit-margin-top="0"
   fit-margin-left="0"
   fit-margin-right="0"
   fit-margin-bottom="0"
   inkscape:zoom="16"
   inkscape:cx="68.792434"
   inkscape:cy="41.358367"
   inkscape:window-x="3840"
   inkscape:window-y="41"
   inkscape:window-maximized="0"
   inkscape:current-layer="Layer_1" />
<path
   style="fill:none;stroke:#000000;stroke-width:1.60000002;stroke-miterlimit:10"
   inkscape:connector-curvature="0"
   id="path8"
   d="m 88.7,125.6 c 2.6,-1.7 5.9,-2.1 9,-0.8 3,1.3 4.9,3.9 5.5,6.9 M 85.3,120.3 c 4.3,-2.8 9.8,-3.4 14.9,-1.2 4.9,2.1 8.1,6.4 9.2,11.3 0,0.2 0.1,0.3 0.1,0.5 M 79,115 c 6.7,-5.3 16,-6.9 24.3,-3.2 8.4,3.7 13.6,11.6 14.2,20.1 M 144.8,96.8 139,88.2 c 0,0 0.1,-9.3 -9.8,-18.8 -2.8,-2.7 -6.6,14.8 4.5,22.4 l 5.8,8.6 z m -69.2,66.6 c 0,0 0.1,-24.2 13.6,-23.7 54.8,1.7 48.8,-8.9 50.3,-27.5 m -68.1,48.5 c 0,0 -2.2,-30.8 21.4,-29.7 23.6,1.1 40.5,4.5 41.1,-18.9 l 33,0.1 v 26.2 c 0,11.2 -5.6,21.8 -30.2,22.4 -34.6,0.8 -47.2,0.2 -47.2,0.2 0,0 -18.2,-1.4 -18.2,9.7 z m 85.5,-63.9 5.8,-8.6 c 0,0 -0.1,-9.3 9.8,-18.8 2.8,-2.7 6.6,14.8 -4.5,22.4 l -5.8,8.6 z m -17.4,15.4 c 0.2,-5.9 5,-10.6 11,-10.6 5.9,0 10.8,4.7 11,10.6 m -27.6,-0.1 c 0.2,-8.9 7.5,-16.1 16.5,-16.1 9,0 16.3,7.2 16.5,16.1 m -78.2,13.5 c 2.6,-1.7 5.9,-2.1 9,-0.8 3,1.3 4.9,3.9 5.5,6.9 M 85.3,120.3 c 4.3,-2.8 9.8,-3.4 14.9,-1.2 4.9,2.1 8.1,6.4 9.2,11.3 0,0.2 0.1,0.3 0.1,0.5 M 79,115 c 6.7,-5.3 16,-6.9 24.3,-3.2 8.4,3.7 13.6,11.6 14.2,20.1 M 144.8,96.8 139,88.2 c 0,0 0.1,-9.3 -9.8,-18.8 -2.8,-2.7 -6.6,14.8 4.5,22.4 l 5.8,8.6 z m -69.2,66.6 c 0,0 0.1,-23.8 13.6,-23.7 m -17.8,21 c 0,0 -2.2,-30.8 21.4,-29.7 23.6,1.1 40.5,4.5 41.1,-18.9 l 33,0.1 v 26.2 c 0,11.2 -5.6,21.8 -30.2,22.4 -34.6,0.8 -47.2,0.2 -47.2,0.2 0,0 -18.2,-1.4 -18.2,9.7 z m 85.5,-63.9 5.8,-8.6 c 0,0 -0.1,-9.3 9.8,-18.8 2.8,-2.7 6.6,14.8 -4.5,22.4 l -5.8,8.6 z m -17.4,15.4 c 0.2,-5.9 5,-10.6 11,-10.6 5.9,0 10.8,4.7 11,10.6 m -27.6,-0.1 c 0.2,-8.9 7.5,-16.1 16.5,-16.1 9,0 16.3,7.2 16.5,16.1"
   stroke-miterlimit="10"
   clip-path="url(#SVGID_2_)"
   data-ignore="true"
   transform="translate(-70.5,-68.32003)" />
<path
   data-ignore="true"
   stroke-miterlimit="10"
   d="m 66.2,12.27997 -4.2,2.8 m -1.2,-11.8999997 -2.6,1.8 m 4.9,1.1 -3.5,2.4 m 5.4,0.4 -4.2,2.7999997 m 33.6,0.6 4.2,2.8 m 1.2,-11.8999997 2.6,1.8 m -4.9,1.1 3.5,2.4 m -5.4,0.4 4.2,2.7999997"
   id="path12"
   inkscape:connector-curvature="0"
   style="fill:none;stroke:#000000;stroke-width:1.01900005;stroke-miterlimit:10" />

<path
   style="stroke-width:0.0625"
   d="M 0.04088227,99.688977 C 0.06415276,98.202259 0.09068203,94.862415 0.09983622,92.267102 0.1166826,87.490971 0.13392903,87.040765 0.38834489,84.735852 1.2798025,76.659571 4.1015974,70.149714 8.3295346,66.415598 c 2.8042484,-2.476714 5.8030234,-3.81139 9.8357254,-4.377625 1.405248,-0.197312 4.530459,-0.154858 9.366113,0.127231 2.195113,0.128053 4.015208,0.224459 4.044656,0.214236 0.07817,-0.02714 -0.335092,-1.001114 -0.670853,-1.581087 -1.057113,-1.825992 -2.814288,-3.257606 -4.741111,-3.862701 -0.893004,-0.280437 -1.406014,-0.364321 -2.445669,-0.399899 -0.79033,-0.02705 -1.149738,-0.0112 -1.65625,0.07303 -1.056204,0.175643 -2.078669,0.5372 -2.937301,1.038668 -0.230392,0.134556 -0.442112,0.243856 -0.470489,0.242889 -0.02838,-9.69e-4 -0.231905,-0.285712 -0.452282,-0.632767 l -0.400687,-0.631008 0.150687,-0.116105 c 0.281482,-0.216883 1.648172,-0.858027 2.244436,-1.052913 1.203872,-0.393481 1.703995,-0.466368 3.21875,-0.469097 1.090435,-0.002 1.491413,0.0211 1.9375,0.111429 1.414473,0.286426 2.893831,0.918635 4.047314,1.729633 0.739359,0.519834 1.772326,1.552994 2.312152,2.312587 0.514397,0.72381 1.100775,1.87844 1.380714,2.71875 l 0.20821,0.625 0.775805,0.04192 c 4.162545,0.224928 9.983129,0.232502 11.69768,0.01522 0.357809,-0.04534 0.356527,-0.03689 0.171221,-1.129057 C 44.94349,55.506113 41.588483,50.12757 36.720225,46.623965 33.571035,44.357546 29.993458,42.942776 26.07151,42.412882 c -1.046451,-0.141386 -4.092485,-0.161139 -5.125,-0.03324 -4.365489,0.54078 -8.087873,2.018985 -11.4871604,4.561693 C 9.208599,47.128903 8.9928215,47.271747 8.979844,47.258769 8.9668665,47.245792 8.747249,46.968821 8.4918053,46.643278 L 8.0273621,46.051382 8.5338109,45.670406 C 11.218211,43.65107 14.413934,42.15009 17.69651,41.366834 c 2.051693,-0.489554 3.326481,-0.630981 5.6875,-0.630981 1.98503,0 2.474399,0.03774 4.105789,0.316641 4.174521,0.713675 8.324659,2.666424 11.683921,5.497591 0.706731,0.595629 2.071832,1.953573 2.731337,2.717018 2.434846,2.818581 4.278783,6.379602 5.194293,10.03125 0.228666,0.912071 0.53466,2.552248 0.53466,2.865868 v 0.181527 l 0.390625,-0.04359 c 1.009591,-0.112665 2.986054,-0.540952 4.062551,-0.880328 2.278535,-0.718329 4.208094,-1.802134 5.654429,-3.176011 2.23219,-2.120363 3.70669,-5.231764 4.388315,-9.259964 0.26528,-1.567744 0.362624,-2.613318 0.505268,-5.427424 0.09786,-1.930446 0.3306,-3.223185 0.873862,-4.853826 0.786688,-2.361264 1.974581,-4.36268 3.739294,-6.300127 l 0.586475,-0.643877 -0.366031,-0.54726 C 67.267473,30.912346 66.097291,29.175844 64.868379,27.354445 L 62.633998,24.042812 62.11838,23.65589 c -0.283591,-0.212807 -0.614057,-0.47096 -0.73437,-0.573673 l -0.21875,-0.186752 1.29365,-0.0017 1.29365,-0.0017 2.535975,3.765625 c 1.394781,2.071093 2.585931,3.833767 2.646994,3.917052 l 0.111019,0.151428 0.500081,-0.381426 c 0.784069,-0.598033 1.726531,-1.174934 2.720256,-1.66512 l 0.914125,-0.450923 -1.770256,-2.621443 c -0.973644,-1.441794 -1.771719,-2.642537 -1.773506,-2.668318 -0.0018,-0.02578 0.412943,-0.04687 0.921612,-0.04687 h 0.92485 l 1.6168,2.40351 c 0.889244,1.321931 1.636213,2.391516 1.659931,2.376856 0.02372,-0.01466 0.433882,-0.124581 0.911475,-0.244268 3.166732,-0.793603 6.523932,-0.680029 9.607538,0.325021 l 0.545431,0.177774 1.698238,-2.519447 1.698237,-2.519446 h 0.925075 c 0.508788,0 0.925075,0.01577 0.925075,0.03504 0,0.01927 -0.7898,1.204216 -1.755112,2.633213 -0.965313,1.428997 -1.765832,2.629637 -1.778932,2.668089 -0.03644,0.10694 3.907157,2.753052 3.985782,2.674423 0.03536,-0.03536 1.266493,-1.845215 2.73585,-4.0219 l 2.671562,-3.95761 1.3048,-0.01613 1.3048,-0.01613 -0.1875,0.157139 c -0.103125,0.08643 -0.4348,0.346811 -0.737056,0.578631 l -0.549563,0.421492 -2.737043,4.0625 c -1.505382,2.234375 -2.757507,4.097844 -2.782513,4.141042 -0.02837,0.049 0.113294,0.260568 0.376631,0.5625 1.983913,2.274647 3.330594,5.011184 3.929007,7.983958 0.353,1.753621 0.344337,1.34474 0.343681,16.231675 -6.25e-4,8.502488 -0.02463,14.109196 -0.06389,14.768325 -0.431987,7.252079 -3.200162,12.392752 -8.623,16.013443 -4.4554,2.974756 -10.746837,4.734444 -18.9375,5.29675 -4.741869,0.325544 -29.813836,0.649638 -41.1875,0.532419 -5.406788,-0.05572 -7.055184,-0.09064 -10.5,-0.2224 -1.175544,-0.04496 -3.236002,0.04173 -4.625,0.194594 -6.7784647,0.745993 -10.7853943,3.252587 -11.5248885,7.209557 -0.048888,0.2616 -0.1088022,0.72173 -0.1331419,1.02251 l -0.044254,0.54687 H 0.77764896 -0.0014277 Z M 1.9152603,96.821121 c 0.2986865,-0.407056 1.3601201,-1.385669 1.898718,-1.750562 l 0.4940322,-0.334707 0.042317,-0.8125 c 0.260239,-4.996687 1.1573458,-9.804796 2.5130254,-13.468749 0.4611875,-1.246437 1.384075,-3.171916 1.9621456,-4.09375 1.6955155,-2.703794 3.8179245,-4.491128 6.2611125,-5.27264 1.482468,-0.474204 2.25225,-0.536845 5.359899,-0.43617 3.287612,0.106506 14.155306,0.108377 16.625,0.0029 8.769157,-0.374653 14.373606,-1.083107 18.857725,-2.383788 6.244527,-1.811312 9.471269,-4.520856 10.868169,-9.126166 0.632544,-2.085361 0.895675,-4.371183 1.119119,-9.721598 0.05311,-1.271875 0.123506,-2.776563 0.156425,-3.34375 0.03292,-0.567188 0.06012,-1.136719 0.06046,-1.265625 l 6.25e-4,-0.234375 H 66.14656 64.159098 l -0.07554,1.140625 c -0.3915,5.911977 -1.997857,10.308111 -4.837261,13.238207 -2.60958,2.692931 -6.169462,4.248527 -11.278584,4.928512 -2.259004,0.300655 -3.270402,0.348462 -7.364936,0.348123 -4.18438,-3.75e-4 -4.29802,-0.0046 -12.09375,-0.449742 -4.174396,-0.238376 -5.488564,-0.291651 -7.28125,-0.295175 -1.997581,-0.0039 -2.271607,0.0085 -3.15625,0.143384 -1.968316,0.300067 -3.550702,0.781095 -5.15625,1.567445 -4.0302044,1.973863 -7.0060674,5.570836 -8.9613969,10.83176 -1.2372148,3.328796 -2.0326808,7.516621 -2.2526528,11.859359 -0.06617,1.306344 -0.076575,9.188488 -0.012126,9.186025 0.021261,-8.12e-4 0.1230317,-0.116468 0.2261567,-0.257006 z M 6.4826796,93.618252 C 7.6482628,93.126671 9.5634128,92.59419 11.10276,92.33369 c 2.760933,-0.467219 4.961685,-0.555675 9.625,-0.386863 4.92634,0.178332 21.483678,0.18475 32,0.0124 8.787858,-0.144018 14.744881,-0.283312 16.3125,-0.381437 11.004231,-0.6888 18.514956,-3.579731 22.651119,-8.71858 1.766087,-2.194218 3.042637,-5.149567 3.56285,-8.248357 0.363519,-2.165387 0.348531,-1.46398 0.348531,-16.3125 v -13.625 l -12.901537,-0.04853 c -9.358588,-0.0352 -12.913207,-0.02966 -12.944007,0.02018 -0.05547,0.08974 -0.09802,0.818613 -0.246175,4.215845 -0.257993,5.916103 -0.4422,7.751363 -0.9996,9.95906 -1.316037,5.21242 -4.523962,8.388036 -10.558531,10.452195 -5.240452,1.792526 -12.338964,2.717366 -23.03765,3.001493 -2.967742,0.07881 -11.741473,0.0393 -14.75,-0.06643 -1.143447,-0.04018 -1.929301,-0.03813 -2.4375,0.0064 -3.505465,0.306912 -6.268508,2.476119 -8.3300066,6.539712 -1.4079875,2.775402 -2.4262256,6.301248 -3.0092506,10.420111 -0.2666892,1.884063 -0.5248664,4.65625 -0.4336424,4.65625 0.014682,0 0.2522011,-0.09511 0.5278192,-0.21135 z M 90.13401,42.961507 c 0,-0.249609 -0.206256,-1.188893 -0.385794,-1.756904 -0.226893,-0.717814 -0.808112,-1.933362 -1.210331,-2.53125 -1.535612,-2.282646 -3.821587,-3.824919 -6.550969,-4.419719 -0.542887,-0.118308 -0.82755,-0.138389 -1.977906,-0.139526 -1.17485,-0.0012 -1.429769,0.01704 -2.028081,0.144775 -1.411175,0.30128 -2.805356,0.901124 -3.909419,1.682016 -0.750287,0.530672 -1.911906,1.688337 -2.428206,2.419954 -0.423206,0.599685 -1.098419,1.923554 -1.322894,2.59375 -0.168512,0.50311 -0.435069,1.659208 -0.435831,1.890273 l -6.25e-4,0.171525 5.328125,0.01633 c 2.930469,0.009 7.486719,0.0232 10.125,0.0316 4.667119,0.01486 4.796875,0.01208 4.796875,-0.102826 z m 5.40835,-0.366279 c -0.110619,-1.222215 -0.508094,-2.870423 -0.998037,-4.138519 -0.518725,-1.342585 -1.517088,-3.046245 -2.48225,-4.235847 -0.537413,-0.662383 -1.588475,-1.699221 -2.30395,-2.272766 -3.90555,-3.130808 -9.032125,-4.231215 -13.8309,-2.968772 -1.578094,0.415159 -1.578644,0.41545 -4.462807,2.37601 -1.445675,0.982722 -2.656837,1.786769 -2.691468,1.786769 -0.07653,0 -0.605513,0.565943 -1.137357,1.216811 -0.981012,1.20056 -2.019337,3.051794 -2.549287,4.545119 -0.404481,1.139776 -0.775594,2.822605 -0.838144,3.80057 l -0.01799,0.28125 2.013012,0.01649 2.013013,0.01649 0.02859,-0.14149 c 0.01573,-0.07782 0.07355,-0.408676 0.128506,-0.735238 0.647119,-3.845323 3.394857,-7.254307 7.050782,-8.747554 1.357868,-0.554616 2.6123,-0.814966 4.147768,-0.860848 1.09045,-0.03258 1.884744,0.02729 2.759719,0.208019 3.058369,0.631724 5.779694,2.483738 7.495863,5.101358 0.47815,0.72931 1.056006,1.922895 1.324843,2.736525 0.20935,0.63359 0.504244,1.981446 0.504244,2.304727 v 0.195273 h 1.944844 1.944844 z"
   id="path3776"
   inkscape:connector-curvature="0" /><path
   style="stroke-width:0.0625"
   d="m 38.174138,62.470228 c -0.01694,-0.06016 -0.04925,-0.207813 -0.07181,-0.328125 -0.02256,-0.120313 -0.137255,-0.548902 -0.254885,-0.95242 C 36.966081,58.16627 35.147275,55.420611 32.7768,53.535068 29.461,50.897586 25.012473,49.732265 20.91526,50.42786 c -1.739281,0.295282 -3.403877,0.888231 -4.916373,1.751269 -0.386012,0.220261 -0.720171,0.400474 -0.742576,0.400474 -0.04692,0 -0.891261,-1.253704 -0.861047,-1.278505 0.161899,-0.132887 1.273542,-0.743539 1.870355,-1.02743 4.587557,-2.182203 9.76648,-2.143303 14.436616,0.108439 2.591344,1.249436 4.783954,3.170231 6.454795,5.654603 0.652296,0.969899 1.539927,2.742868 1.914545,3.824143 0.285831,0.825008 0.687435,2.323607 0.687435,2.565188 v 0.153562 h -0.777038 c -0.686638,0 -0.780621,-0.01272 -0.807834,-0.109375 z"
   id="path3778"
   inkscape:connector-curvature="0" /><path
   style="stroke-width:0.0625"
   d="m 68.66209,21.517103 -0.943047,-1.40625 -0.03646,-0.6875 c -0.08446,-1.592638 -0.648111,-3.965024 -1.41381,-5.950625 l -0.197874,-0.513126 -1.869713,1.247501 c -1.028342,0.686125 -1.883075,1.2475 -1.899405,1.2475 -0.05973,0 -0.539499,-0.753604 -0.510079,-0.801207 0.01669,-0.02701 0.889937,-0.621536 1.940541,-1.32117 1.050604,-0.699633 1.910189,-1.296125 1.910189,-1.325536 0,-0.114694 -1.066869,-2.1770873 -1.1262,-2.1770873 -0.03465,0 -0.821155,0.5059453 -1.747784,1.1243223 l -1.684779,1.124322 -0.251868,-0.370893 c -0.138528,-0.203991 -0.251869,-0.396221 -0.251869,-0.427178 0,-0.03096 0.773438,-0.571215 1.71875,-1.200573 0.945313,-0.6293591 1.71875,-1.1558641 1.71875,-1.1700122 0,-0.045274 -1.004893,-1.60438 -1.153938,-1.7903494 L 62.719949,6.9401302 61.344562,7.8848664 c -0.756462,0.519605 -1.403078,0.9447363 -1.436924,0.9447363 -0.03385,0 -0.175502,-0.1734175 -0.314792,-0.3853719 L 59.339592,8.0588589 60.662888,7.1557177 c 0.727813,-0.4967275 1.358126,-0.9357069 1.400696,-0.9755095 0.06046,-0.05653 -0.04897,-0.2304127 -0.5,-0.7944833 -0.830046,-1.038082 -1.064164,-1.3064253 -1.13751,-1.3037965 -0.03569,0.00128 -0.485593,0.294588 -0.999786,0.6517973 L 58.491391,5.3831974 58.217356,4.9747067 C 58.066637,4.7500369 57.967028,4.5454954 57.996003,4.5201701 58.024978,4.4948449 58.372122,4.2536789 58.767434,3.9842457 59.162747,3.7148125 59.550797,3.4451689 59.629768,3.3850376 L 59.773352,3.2757081 58.947915,2.4255214 58.122479,1.5753345 57.948173,1.7423302 c -0.546682,0.5237548 -1.066531,2.1619495 -1.31685,4.1497725 -0.121007,0.9609356 -0.101965,3.6274793 0.03325,4.6562503 0.484145,3.683578 1.74439,6.806287 3.755662,9.305998 0.617961,0.768033 1.860521,1.964992 2.651938,2.554614 l 0.648489,0.483138 h -1.294629 -1.294628 l -0.761894,-0.765625 c -0.903237,-0.907662 -1.427573,-1.549452 -2.135841,-2.614283 -1.662214,-2.499022 -2.695022,-5.41466 -3.130988,-8.838842 -0.138578,-1.0884222 -0.158812,-3.9084235 -0.0352,-4.9062503 0.226443,-1.8279554 0.575161,-3.1410531 1.112069,-4.1875 0.635864,-1.23931454 1.494488,-1.76346483 2.407838,-1.46987445 0.304157,0.0977692 0.452922,0.22544388 1.556539,1.33586265 3.717476,3.7403868 6.462824,8.0603511 7.965045,12.5334581 0.577107,1.718429 1.019794,3.719647 1.131825,5.116549 l 0.04389,0.547246 1.088318,1.609004 1.088318,1.609005 -0.300068,0.01474 c -0.165037,0.0081 -0.582678,0.02217 -0.928092,0.03125 l -0.628024,0.01651 z"
   id="path3780"
   inkscape:connector-curvature="0" /><path
   style="stroke-width:0.0625"
   d="m 89.267434,22.857135 c 0,-0.01923 0.487547,-0.75758 1.083437,-1.640773 l 1.083437,-1.605804 0.04273,-0.607832 c 0.120687,-1.716911 0.749594,-4.205871 1.630883,-6.454373 0.405537,-1.034677 1.545217,-3.3300016 2.149819,-4.3297522 1.335693,-2.208658 2.704423,-4.0159023 4.604726,-6.0799898 1.071644,-1.16401526 1.708734,-1.76834869 2.059484,-1.95359312 0.35448,-0.18721681 1.02691,-0.18562892797 1.38488,0.00327 1.15713,0.61061555 2.00078,2.68741362 2.34245,5.76631462 0.11324,1.0205175 0.0944,3.45073 -0.035,4.5312505 -0.5778,4.821331 -2.35511,8.720666 -5.32457,11.681883 l -0.726383,0.724367 h -1.283342 c -0.705837,0 -1.271622,-0.01057 -1.2573,-0.02349 0.01432,-0.01292 0.321355,-0.24474 0.682292,-0.515152 0.753539,-0.564547 2.047851,-1.823755 2.626333,-2.555105 0.98523,-1.245583 2.04419,-3.131811 2.59047,-4.614178 0.52235,-1.41742 0.93854,-3.193206 1.13046,-4.823322 0.12602,-1.0704549 0.14395,-3.2752243 0.0348,-4.2812505 C 103.8792,4.163691 103.3648,2.4512584 102.79299,1.7716993 l -0.17009,-0.2021409 -0.86185,0.8601964 c -0.47401,0.4731081 -0.85003,0.8793138 -0.83559,0.9026794 0.0144,0.023366 0.40668,0.3049051 0.87163,0.6256436 0.46496,0.3207385 0.84507,0.5988247 0.8447,0.6179693 -3.8e-4,0.019145 -0.12108,0.207181 -0.26825,0.4178587 l -0.26757,0.3830503 -0.93488,-0.6494611 -0.93488,-0.6494612 -0.241427,0.2664109 c -0.2416,0.2665952 -0.991722,1.1927177 -1.309414,1.6166423 l -0.16879,0.2252314 0.337808,0.2242914 c 0.185794,0.1233607 0.80262,0.5446094 1.370723,0.9361082 l 1.03291,0.7118168 -0.25336,0.385535 c -0.13935,0.212045 -0.27953,0.3855357 -0.31151,0.3855357 -0.032,0 -0.63214,-0.3942894 -1.333678,-0.8761988 -0.70154,-0.4819094 -1.31419,-0.8910344 -1.361444,-0.9091675 -0.05509,-0.021139 -0.198452,0.1306669 -0.39955,0.4230738 -0.578918,0.8417768 -0.96804,1.5037206 -0.906802,1.5425806 0.850481,0.5396925 3.325784,2.2293824 3.325784,2.2702424 0,0.03098 -0.113333,0.22323 -0.251862,0.427221 L 99.51373,12.07825 97.830232,10.954783 96.146735,9.8313148 95.992792,10.096086 c -0.243244,0.418362 -0.998906,1.981127 -0.970104,2.006247 0.01432,0.01249 0.87681,0.589275 1.916654,1.281751 1.039844,0.692477 1.890625,1.274424 1.890625,1.293215 0,0.05053 -0.499646,0.777307 -0.534388,0.777307 -0.01635,0 -0.823897,-0.529131 -1.794546,-1.175846 -0.970649,-0.646715 -1.796386,-1.194596 -1.834972,-1.217514 -0.04566,-0.02712 -0.179646,0.257982 -0.383713,0.816471 -0.699959,1.91564 -1.128032,3.768133 -1.267432,5.48484 l -0.06566,0.808643 -0.915982,1.360453 -0.915983,1.360453 h -0.92491 c -0.5087,0 -0.92491,-0.01574 -0.92491,-0.03497 z"
   id="path3782"
   inkscape:connector-curvature="0" /></svg>
