<?xml version="1.0" encoding="utf-8"?>
<!DOCTYPE svg PUBLIC "-//W3C//DTD SVG 1.1//EN" "http://www.w3.org/Graphics/SVG/1.1/DTD/svg11.dtd">
<svg version="1.1" id="Layer_1" xmlns="http://www.w3.org/2000/svg" xmlns:xlink="http://www.w3.org/1999/xlink" x="0px" y="0px"
	 viewBox="0 0 253 252.7" enable-background="new 0 0 253 252.7" xml:space="preserve">
<g>
	<defs>
		<rect id="SVGID_1_" y="0" width="253" height="252.7"/>
	</defs>
	<clipPath id="SVGID_2_">
		<use xlink:href="#SVGID_1_"  overflow="visible"/>
	</clipPath>
	<path data-ignore="true" clip-path="url(#SVGID_2_)" fill="none" stroke="#FFFFFF" stroke-width="1.6" stroke-miterlimit="10" d="M88.7,125.6
		c2.6-1.7,5.9-2.1,9-0.8c3,1.3,4.9,3.9,5.5,6.9 M85.3,120.3c4.3-2.8,9.8-3.4,14.9-1.2c4.9,2.1,8.1,6.4,9.2,11.3
		c0,0.2,0.1,0.3,0.1,0.5 M79,115c6.7-5.3,16-6.9,24.3-3.2c8.4,3.7,13.6,11.6,14.2,20.1 M144.8,96.8l-5.8-8.6c0,0,0.1-9.3-9.8-18.8
		c-2.8-2.7-6.6,14.8,4.5,22.4l5.8,8.6L144.8,96.8z M75.6,163.4c0,0,0.1-24.2,13.6-23.7c54.8,1.7,48.8-8.9,50.3-27.5 M71.4,160.7
		c0,0-2.2-30.8,21.4-29.7c23.6,1.1,40.5,4.5,41.1-18.9l33,0.1v26.2c0,11.2-5.6,21.8-30.2,22.4c-34.6,0.8-47.2,0.2-47.2,0.2
		s-18.2-1.4-18.2,9.7L71.4,160.7z M156.9,96.8l5.8-8.6c0,0-0.1-9.3,9.8-18.8c2.8-2.7,6.6,14.8-4.5,22.4l-5.8,8.6L156.9,96.8z
		 M139.5,112.2c0.2-5.9,5-10.6,11-10.6c5.9,0,10.8,4.7,11,10.6 M133.9,112.1c0.2-8.9,7.5-16.1,16.5-16.1c9,0,16.3,7.2,16.5,16.1
		 M88.7,125.6c2.6-1.7,5.9-2.1,9-0.8c3,1.3,4.9,3.9,5.5,6.9 M85.3,120.3c4.3-2.8,9.8-3.4,14.9-1.2c4.9,2.1,8.1,6.4,9.2,11.3
		c0,0.2,0.1,0.3,0.1,0.5 M79,115c6.7-5.3,16-6.9,24.3-3.2c8.4,3.7,13.6,11.6,14.2,20.1 M144.8,96.8l-5.8-8.6c0,0,0.1-9.3-9.8-18.8
		c-2.8-2.7-6.6,14.8,4.5,22.4l5.8,8.6L144.8,96.8z M75.6,163.4c0,0,0.1-23.8,13.6-23.7 M71.4,160.7c0,0-2.2-30.8,21.4-29.7
		c23.6,1.1,40.5,4.5,41.1-18.9l33,0.1v26.2c0,11.2-5.6,21.8-30.2,22.4c-34.6,0.8-47.2,0.2-47.2,0.2s-18.2-1.4-18.2,9.7L71.4,160.7z
		 M156.9,96.8l5.8-8.6c0,0-0.1-9.3,9.8-18.8c2.8-2.7,6.6,14.8-4.5,22.4l-5.8,8.6L156.9,96.8z M139.5,112.2c0.2-5.9,5-10.6,11-10.6
		c5.9,0,10.8,4.7,11,10.6 M133.9,112.1c0.2-8.9,7.5-16.1,16.5-16.1c9,0,16.3,7.2,16.5,16.1"/>
</g>
<path data-ignore="true" fill="none" stroke="#FFFFFF" stroke-width="1.019" stroke-miterlimit="10" d="M136.7,80.6l-4.2,2.8 M131.3,71.5l-2.6,1.8
	 M133.6,74.4l-3.5,2.4 M135.5,77.2l-4.2,2.8 M164.9,80.6l4.2,2.8 M170.3,71.5l2.6,1.8 M168,74.4l3.5,2.4 M166.1,77.2l4.2,2.8"/>
<g>
	<defs>
		<rect id="SVGID_3_" y="0" width="253" height="252.7"/>
	</defs>
	<clipPath id="SVGID_4_">
		<use xlink:href="#SVGID_3_"  overflow="visible"/>
	</clipPath>
	<path clip-path="url(#SVGID_4_)" fill="none" stroke="#FFFFFF" stroke-width="1.4" stroke-miterlimit="10" d="M133,0l-0.6,12.2
		 M139.6,0.5l-1.3,12.2 M146.2,1.4l-1.9,12.1 M152.7,2.6l-2.5,12 M159.1,4.1L156,16 M165.5,6l-3.8,11.7 M171.7,8.2l-4.4,11.4
		 M177.8,10.7l-5,11.2 M183.8,13.6l-5.6,10.9 M189.6,16.7l-6.1,10.6 M195.3,20.2l-6.7,10.3 M200.7,23.9l-7.2,9.9 M206,28l-7.7,9.5
		 M211,32.3l-8.2,9.1 M215.8,36.8l-8.7,8.7 M220.4,41.6l-9.1,8.2 M224.7,46.6l-9.5,7.7 M228.7,51.9l-9.9,7.2 M232.5,57.3L222.2,64
		 M236,63l-10.6,6.1 M239.1,68.8l-10.9,5.6 M242,74.8l-11.2,5 M244.5,80.9l-11.4,4.4 M246.7,87.1l-11.7,3.8 M248.6,93.5l-11.8,3.2
		 M250.2,99.9l-12,2.5 M251.4,106.4l-12.1,1.9 M252.3,113l-12.2,1.3 M252.8,119.6l-12.2,0.6 M253,126.2h-12.3 M252.8,132.8
		l-12.2-0.6 M252.3,139.4l-12.2-1.3 M251.4,146l-12.1-1.9 M250.2,152.5l-12-2.5 M248.7,159l-11.8-3.2 M246.8,165.3l-11.7-3.8
		 M244.6,171.6l-11.4-4.4 M242.1,177.7l-11.2-5 M239.2,183.6l-10.9-5.6 M236.1,189.5l-10.6-6.1 M232.6,195.1l-10.3-6.7 M228.9,200.6
		l-9.9-7.2 M224.8,205.8l-9.5-7.7 M220.5,210.9l-9.1-8.2 M216,215.7l-8.7-8.7 M211.2,220.2l-8.2-9.1 M206.2,224.5l-7.7-9.5
		 M200.9,228.6l-7.2-9.9 M195.4,232.3l-6.7-10.3 M189.8,235.8l-6.1-10.6 M184,239l-5.6-10.9 M178,241.8l-5-11.2 M171.9,244.4
		l-4.4-11.4 M165.7,246.6l-3.8-11.7 M159.3,248.5l-3.2-11.8 M152.9,250l-2.5-12 M146.4,251.2l-1.9-12.1 M139.8,252.1l-1.3-12.2
		 M133.2,252.6l-0.6-12.2 M126.6,252.6v-12.1 M120,252.6l0.6-12.2 M113.4,252.1l1.3-12.2 M106.8,251.3l1.9-12.1 M100.3,250l2.5-12
		 M93.8,248.5l3.2-11.8 M87.5,246.6l3.8-11.7 M81.2,244.4l4.4-11.4 M75.1,241.9l5-11.2 M69.1,239.1l5.6-10.9 M63.3,235.9l6.1-10.6
		 M57.7,232.4l6.7-10.3 M52.2,228.7l7.2-9.9 M47,224.7l7.7-9.5 M41.9,220.4l8.2-9.1 M37.1,215.8l8.7-8.7 M32.6,211l9.1-8.2
		 M28.2,206l9.5-7.7 M24.2,200.7l9.9-7.2 M20.5,195.3l10.3-6.7 M17,189.6l10.6-6.1 M13.8,183.8l10.9-5.6 M11,177.8l11.2-5
		 M8.4,171.7l11.4-4.4 M6.2,165.5l11.7-3.8 M4.3,159.1l11.8-3.2 M2.8,152.7l12-2.5 M1.6,146.2l12.1-1.9 M0.7,139.6l12.2-1.3
		 M0.2,133l12.2-0.6 M0,126.4h12.3 M0.2,119.8l12.2,0.6 M0.7,113.2l12.2,1.3 M1.5,106.6l12.1,1.9 M2.7,100.1l12,2.5 M4.3,93.7
		l11.8,3.2 M6.2,87.3l11.7,3.8 M8.4,81.1l11.4,4.4 M10.9,75l11.2,5 M13.7,69l10.9,5.6 M16.9,63.2l10.6,6.1 M20.4,57.5l10.3,6.7
		 M24.1,52l9.9,7.2 M28.1,46.8l9.5,7.7 M32.4,41.8l9.1,8.2 M37,36.9l8.7,8.7 M41.8,32.4l8.2,9.1 M46.8,28.1l7.7,9.5 M52.1,24
		l7.2,9.9 M57.5,20.3l6.7,10.3 M63.2,16.8l6.1,10.6 M69,13.7l5.6,10.9 M74.9,10.8l5,11.2 M81.1,8.3l4.4,11.4 M87.3,6.1l3.8,11.7
		 M93.7,4.2L96.8,16 M100.1,2.6l2.5,12 M106.6,1.4l1.9,12.1 M113.2,0.5l1.3,12.2 M119.8,0l0.6,12.2 M126.4,0v12.1"/>

		<path clip-path="url(#SVGID_4_)" fill="none" stroke="#FFFFFF" stroke-width="3.058" stroke-linecap="round" stroke-linejoin="round" stroke-dasharray="0,8.955" d="
		M135.4,222.8c47.9-4.4,85.7-43.6,87.9-92"/>

		<path clip-path="url(#SVGID_4_)" fill="none" stroke="#FFFFFF" stroke-width="3.058" stroke-linecap="round" stroke-linejoin="round" stroke-dasharray="0,8.955" d="
		M223,117.4c-4.4-47.9-43.6-85.7-92-87.9"/>

		<path clip-path="url(#SVGID_4_)" fill="none" stroke="#FFFFFF" stroke-width="3.058" stroke-linecap="round" stroke-linejoin="round" stroke-dasharray="0,8.955" d="
		M117.5,29.8c-47.9,4.4-85.7,43.6-87.9,92"/>

		<path clip-path="url(#SVGID_4_)" fill="none" stroke="#FFFFFF" stroke-width="3.058" stroke-linecap="round" stroke-linejoin="round" stroke-dasharray="0,8.955" d="
		M30,135.3c4.4,47.9,43.6,85.7,92,87.9"/>

		<path clip-path="url(#SVGID_4_)" fill="none" stroke="#FFFFFF" stroke-width="3.058" stroke-linecap="round" stroke-linejoin="round" d="
		M126.5,223.2L126.5,223.2 M29.6,126.3L29.6,126.3 M126.5,29.4L126.5,29.4 M223.4,126.3L223.4,126.3"/>
	<circle clip-path="url(#SVGID_4_)" fill="none" stroke="#FFFFFF" stroke-width="1.4" cx="126.5" cy="126.3" r="109.3"/>
	<path clip-path="url(#SVGID_4_)" fill="none" stroke="#FFFFFF" stroke-width="1.4" d="M126.5,230.8c57.7,0,104.4-46.8,104.4-104.5
		c0-57.7-46.8-104.4-104.4-104.4S22,68.6,22,126.3C22,184,68.8,230.8,126.5,230.8z"/>
</g>
</svg>
