<?xml version="1.0" encoding="utf-8"?>
<!-- Generator: Adobe Illustrator 18.0.0, SVG Export Plug-In . SVG Version: 6.00 Build 0)  -->
<!DOCTYPE svg PUBLIC "-//W3C//DTD SVG 1.1//EN" "http://www.w3.org/Graphics/SVG/1.1/DTD/svg11.dtd">
<svg version="1.1" id="Layer_1" xmlns="http://www.w3.org/2000/svg" xmlns:xlink="http://www.w3.org/1999/xlink" x="0px" y="0px"
	 viewBox="0 0 248.3 478.7" enable-background="new 0 0 248.3 478.7" xml:space="preserve">
<g>
	<defs>
		<rect id="SVGID_1_" x="0" width="248.3" height="478.7"/>
	</defs>
	<clipPath id="SVGID_2_">
		<use xlink:href="#SVGID_1_"  overflow="visible"/>
	</clipPath>
	<path clip-path="url(#SVGID_2_)" fill="none" stroke="#231F20" stroke-width="2" stroke-miterlimit="10" d="M119.7,53.8
		c0-28.9-26.4-52.3-59.1-52.3 M1.4,53.8c0-28.9,26.4-52.3,59.1-52.3 M100.8,63.6V81H20.3V63.6 M119.8,53.8v9.8H1.4v-9.8 M20.3,81.2
		V254 M47.2,81v273.4 M60.6,81v248.9 M74,81v259 M87.4,81v180 M100.8,81v171.3 M33.7,81v165.5 M119.8,53.8H1.4"/>
	<path clip-path="url(#SVGID_2_)" fill="none" stroke="#231F20" stroke-width="2" stroke-miterlimit="10" d="M246.8,271.8
		c0-21.4-19.5-38.8-43.6-38.8 M159.5,271.8c0-21.4,19.5-38.8,43.6-38.8 M232.9,279V292h-59.4V279 M246.8,271.8v7.3h-87.3v-7.3
		 M173.4,292.1v149 M193.2,292v173.7 M203.2,292v165 M213.1,292v169.4 M223,292v186.7 M232.9,292v169.4 M183.3,292v179.5
		 M246.8,271.8h-87.3"/>
</g>
</svg>
