<?xml version="1.0" encoding="utf-8"?>
<!-- Generator: Adobe Illustrator 18.0.0, SVG Export Plug-In . SVG Version: 6.00 Build 0)  -->
<!DOCTYPE svg PUBLIC "-//W3C//DTD SVG 1.1//EN" "http://www.w3.org/Graphics/SVG/1.1/DTD/svg11.dtd">
<svg version="1.1" id="Layer_1" xmlns="http://www.w3.org/2000/svg" xmlns:xlink="http://www.w3.org/1999/xlink" x="0px" y="0px"
	 viewBox="0 0 185.1 181.8" enable-background="new 0 0 185.1 181.8" xml:space="preserve">
<polygon fill="#FFFFFF" points="13.8,154 20.8,165.9 29.8,173.9 29.8,181.8 155.8,181.8 155.8,173.9 165.8,163.9 172.5,154 "/>
<g>
	<defs>
		<rect id="SVGID_1_" width="185.1" height="181.8"/>
	</defs>
	<clipPath id="SVGID_2_">
		<use xlink:href="#SVGID_1_"  overflow="visible"/>
	</clipPath>
	<path clip-path="url(#SVGID_2_)" fill="none" stroke="#231F20" stroke-miterlimit="10" d="M0.7,98.1h183.7 M116,123
		c8.3,0,15,6.4,15,14.3c0,7.9-6.7,14.3-15,14.3 M103.2,128.5v16.9 M100.9,126.2v22.2 M98.7,124.5V150 M79.4,116.7v41.1 M76.7,116.3
		v42.2 M74,115.9v42.9 M71.3,115.7v43.4 M46.1,118v39.4 M43.5,118.5v37.7 M40.8,119.9v35.6 M116.3,151.5l-11.6-7.6 M116.3,122.9
		l-11.6,7.6 M96.6,123.1v28.7 M82,117.3v40.2 M68.7,115.5v44.1 M48.8,117.3v40.6 M38.1,120.9v33.4 M106.7,137.4
		c0,12.1-18.5,21.9-41.3,21.9c-18.9,0-29.2-3.8-38.3-13.2c-0.7-0.7-3.4-3.1-4.5-4c-0.7-0.5-1.2-2.4-1.3-3c-0.1-0.6,1.3-1.2,1.3-1.8
		c0-1.2-1-2.6-0.2-3.5c7.2-9,15.2-14.4,26.3-16.8l3.5-6.7l16.3-1.4l0,6.6c4.9,0.2,9.1,0.8,13.4,1.8v-6.8c3.5,1.8,14.6,7.5,14.6,7.5
		l0,5C102.9,126.9,106.7,131.9,106.7,137.4z"/>
	<path clip-path="url(#SVGID_2_)" fill="none" stroke="#231F20" stroke-width="0.75" stroke-miterlimit="10" d="M125.9,6
		c3.3,0,6,2.6,6,5.7s-2.7,5.7-6,5.7 M121.9,8.3V15 M120,7.4v8.9 M110.5,3.5v16.5 M108.7,3.4v17 M96.8,4.3v15.1 M126,17.5l-4.7-3.1
		 M126,6l-4.7,3.1 M118.1,6.1v11.5 M112.3,3.8v16.1 M106.9,3.1v17.7 M98.9,3.8v16.3 M94.6,5.2v13.4 M122.1,11.8
		c0,4.9-7.4,8.8-16.6,8.8c-7.6,0-11.7-1.5-15.4-5.3c-0.3-0.3-1.4-1.2-1.8-1.6c-0.3-0.2-0.5-1-0.5-1.2c0-0.2,0.5-0.5,0.5-0.7
		c0-0.5-0.4-1-0.1-1.4c2.9-3.6,6.1-5.8,10.6-6.8l1.4-2.7l6.5-0.6v2.6c2,0.1,3.7,0.3,5.4,0.7V1c1.4,0.7,5.9,3,5.9,3l0,2
		C120.6,7.6,122.1,9.6,122.1,11.8z"/>
	<path clip-path="url(#SVGID_2_)" fill="none" stroke="#231F20" stroke-miterlimit="10" d="M184.6,98.2c0,25.6-7.1,61.1-28.8,75.7
		l0,7.4 M0.5,98.2c0,24.8,8.4,61.1,28.9,75.7l0.6,7.4h125.8 M132,37.2v61 M118.8,37.5v61 M132,38c0-2.8-3-5.1-6.6-5.1 M118.8,38
		c0-2.8,3-5.1,6.6-5.1 M92.6,34v64 M79.4,34.3v64 M92.6,34.3c0-3-3-5.4-6.6-5.4 M79.4,34.3c0-3,3-5.4,6.6-5.4 M145.2,28.1V98
		 M132,28.3v69.9 M145.2,28.9c0-3.2-3-5.9-6.6-5.9 M132,28.9c0-3.2,3-5.9,6.6-5.9 M105.8,41.1v57 M92.5,41.4v57 M105.8,41.4
		c0-2.7-3-4.8-6.6-4.8 M92.5,41.4c0-2.7,3-4.8,6.6-4.8 M158.3,23v74.9 M145.1,23.2v74.9 M158.3,23.9c0-3.5-3-6.3-6.6-6.3
		 M145.1,23.9c0-3.5,3-6.3,6.6-6.3 M118.9,43.1v55 M105.7,43.4v55 M118.9,43.4c0-2.6-3-4.6-6.6-4.6 M105.7,43.4c0-2.6,3-4.6,6.6-4.6
		 M53.2,31.1v66.8 M39.9,31.4v66.8 M53.2,31.9c0-3.1-3-5.6-6.6-5.6 M39.9,31.9c0-3.1,3-5.6,6.6-5.6 M40,36v62.3 M26.8,36.4v62.3
		 M40,36.4c0-2.9-3-5.2-6.6-5.2 M26.8,36.4c0-2.9,3-5.2,6.6-5.2 M184.6,36.2V98 M171.4,36.4v61.8 M184.6,36.9c0-2.9-3-5.2-6.6-5.2
		 M171.4,36.9c0-2.9,3-5.2,6.6-5.2 M171.5,28.9v69.2 M158.2,29.3v69.2 M171.5,29.3c0-3.2-3-5.8-6.6-5.8 M158.2,29.3
		c0-3.2,3-5.8,6.6-5.8 M79.5,17.9v79.6 M66.2,18.1v79.6 M79.5,18.8c0-3.7-3-6.7-6.6-6.7 M66.2,18.8c0-3.7,3-6.7,6.6-6.7 M66.3,22.9
		v75.4 M53.1,23.3v75.4 M66.3,23.3c0-3.5-3-6.3-6.6-6.3 M53.1,23.3c0-3.5,3-6.3,6.6-6.3 M26.9,33.2v64.9 M13.6,33.4v64.9 M26.9,33.9
		c0-3-3-5.5-6.6-5.5 M13.6,33.9c0-3,3-5.5,6.6-5.5 M13.7,43.1v55.1 M0.5,43.4v55.1 M13.7,43.4c0-2.6-3-4.6-6.6-4.6 M0.5,43.4
		c0-2.6,3-4.6,6.6-4.6"/>
</g>
</svg>
