<?xml version="1.0" encoding="utf-8"?>
<!-- Generator: Adobe Illustrator 18.0.0, SVG Export Plug-In . SVG Version: 6.00 Build 0)  -->
<!DOCTYPE svg PUBLIC "-//W3C//DTD SVG 1.1//EN" "http://www.w3.org/Graphics/SVG/1.1/DTD/svg11.dtd">
<svg version="1.1" id="Layer_1" xmlns="http://www.w3.org/2000/svg" xmlns:xlink="http://www.w3.org/1999/xlink" x="0px" y="0px"
	 viewBox="0 0 858.7 140.2" enable-background="new 0 0 858.7 140.2" xml:space="preserve">
<g>
	<defs>
		<rect id="SVGID_1_" width="859.6" height="140.2"/>
	</defs>
	<clipPath id="SVGID_2_">
		<use xlink:href="#SVGID_1_"  overflow="visible"/>
	</clipPath>
	<path clip-path="url(#SVGID_2_)" fill="none" stroke="#231F20" stroke-miterlimit="10" d="M0.5,0.4v46.1 M0.5,46.5L14.9,32
		 M0.5,0.4l14.4,14.5 M65.2,6.4l8.5,8.5 M65,5.9v8.9 M193.8,25.9l20-6.1 M160,19v8.9 M154.1,19v8.9 M148.2,19v8.9 M142.2,19v8.9
		 M136.3,19v8.9 M130.3,19v8.9 M124.4,19v8.9 M166,19v8.9 M35.3,19.6v6.5 M118.5,19v8.9 M112.5,19v8.9 M106.6,19v8.9 M100.6,19v8.9
		 M94.7,19v8.9 M88.8,19v8.9 M82.8,19v8.9 M76.9,19v8.9 M71,19v8.9 M41.3,19.6v6.5 M47.2,19.6v6.5 M53.1,19v8 M59.1,19v8 M65,19v8
		 M14.7,32h176.6l26.1-9l-3.6-3.2l-22.5-5H14.7V32z"/>
	<path clip-path="url(#SVGID_2_)" fill="none" stroke="#231F20" stroke-miterlimit="10" d="M14.8,17.3H0.6 M15,21.8H0.6 M15,19.6
		H0.6 M14.8,24.1H0.6 M14.8,26.4H0.6 M14.8,28.6H0.6"/>
	<path clip-path="url(#SVGID_2_)" fill="none" stroke="#231F20" stroke-miterlimit="10" d="M0.5,93.7v46.1 M0.5,139.8l14.4-14.5
		 M0.5,93.7l14.4,14.5 M65.2,99.8l8.5,8.5 M65,99.2v8.9 M193.8,119.3l20-6.1 M160,112.3v8.9 M154.1,112.3v8.9 M148.2,112.3v8.9
		 M142.2,112.3v8.9 M136.3,112.3v8.9 M130.3,112.3v8.9 M124.4,112.3v8.9 M166,112.3v8.9 M35.3,113v6.5 M118.5,112.3v8.9
		 M112.5,112.3v8.9 M106.6,112.3v8.9 M100.6,112.3v8.9 M94.7,112.3v8.9 M88.8,112.3v8.9 M82.8,112.3v8.9 M76.9,112.3v8.9 M71,112.3
		v8.9 M41.3,113v6.5 M47.2,113v6.5 M53.1,112.3v8 M59.1,112.3v8 M65,112.3v8 M14.7,125.4h176.6l26.1-9l-3.6-3.2l-22.5-5H14.7V125.4z
		"/>
	<path clip-path="url(#SVGID_2_)" fill="none" stroke="#231F20" stroke-miterlimit="10" d="M14.8,110.7H0.6 M15,115.2H0.6 M15,112.9
		H0.6 M14.8,117.5H0.6 M14.8,119.7H0.6 M14.8,122H0.6"/>
	<path clip-path="url(#SVGID_2_)" fill="none" stroke="#231F20" stroke-miterlimit="10" d="M641.8,47v46.1 M641.8,93.2l14.4-14.5
		 M641.8,47l14.4,14.5 M706.4,53.1l8.5,8.5 M706.3,52.6v8.9 M835.1,72.6l20-6.1 M801.3,65.6v8.9 M795.4,65.6v8.9 M789.4,65.6v8.9
		 M783.5,65.6v8.9 M777.5,65.6v8.9 M771.6,65.6v8.9 M765.7,65.6v8.9 M807.2,65.6v8.9 M676.6,66.3v6.5 M759.7,65.6v8.9 M753.8,65.6
		v8.9 M747.9,65.6v8.9 M741.9,65.6v8.9 M736,65.6v8.9 M730,65.6v8.9 M724.1,65.6v8.9 M718.2,65.6v8.9 M712.2,65.6v8.9 M682.5,66.3
		v6.5 M688.5,66.3v6.5 M694.4,65.6v8 M700.3,65.6v8 M706.3,65.6v8 M656,78.7h176.6l26.1-9l-3.6-3.2l-22.5-5H656V78.7z"/>
</g>
<line fill="none" stroke="#231F20" x1="641.9" y1="74.5" x2="656.3" y2="74.5"/>
<line fill="none" stroke="#231F20" x1="641.3" y1="70.1" x2="655.7" y2="70.1"/>
<line fill="none" stroke="#231F20" x1="641.3" y1="65.8" x2="655.7" y2="65.8"/>
<g>
	<defs>
		<rect id="SVGID_3_" width="859.6" height="140.2"/>
	</defs>
	<clipPath id="SVGID_4_">
		<use xlink:href="#SVGID_3_"  overflow="visible"/>
	</clipPath>
	<path clip-path="url(#SVGID_4_)" fill="none" stroke="#231F20" stroke-miterlimit="10" d="M536,0.4v46.1 M536,46.5L550.4,32
		 M536,0.4l14.4,14.5 M600.7,6.4l8.5,8.5 M600.5,5.9v8.9 M729.3,25.9l20-6.1 M695.5,19v8.9 M689.6,19v8.9 M683.7,19v8.9 M677.7,19
		v8.9 M671.8,19v8.9 M665.8,19v8.9 M659.9,19v8.9 M701.5,19v8.9 M570.8,19.6v6.5 M654,19v8.9 M648,19v8.9 M642.1,19v8.9 M636.1,19
		v8.9 M630.2,19v8.9 M624.3,19v8.9 M618.3,19v8.9 M612.4,19v8.9 M606.5,19v8.9 M576.8,19.6v6.5 M582.7,19.6v6.5 M588.6,19v8
		 M594.6,19v8 M600.5,19v8 M550.2,32h176.6l26.1-9l-3.6-3.2l-22.5-5H550.2V32z"/>
</g>
<line fill="none" stroke="#231F20" x1="535.7" y1="27.7" x2="550.1" y2="27.7"/>
<line fill="none" stroke="#231F20" x1="535.7" y1="23.4" x2="550.1" y2="23.4"/>
<line fill="none" stroke="#231F20" x1="535.7" y1="19.1" x2="550.1" y2="19.1"/>
<path fill="none" stroke="#231F20" stroke-miterlimit="10" d="M367.1,47v46.1 M367.1,93.2l14.4-14.5 M367.1,47l14.4,14.5
	 M431.8,53.1l8.5,8.5 M431.7,52.6v8.9 M560.4,72.6l20-6.1 M526.7,65.6v8.9 M520.7,65.6v8.9 M514.8,65.6v8.9 M508.9,65.6v8.9
	 M502.9,65.6v8.9 M497,65.6v8.9 M491,65.6v8.9 M532.6,65.6v8.9 M402,66.3v6.5 M485.1,65.6v8.9 M479.2,65.6v8.9 M473.2,65.6v8.9
	 M467.3,65.6v8.9 M461.3,65.6v8.9 M455.4,65.6v8.9 M449.5,65.6v8.9 M443.5,65.6v8.9 M437.6,65.6v8.9 M407.9,66.3v6.5 M413.8,66.3
	v6.5 M419.8,65.6v8 M425.7,65.6v8 M431.7,65.6v8 M381.4,78.7h176.6l26.1-9l-3.6-3.2l-22.5-5H381.4V78.7z"/>
<line fill="none" stroke="#231F20" x1="367.3" y1="74.4" x2="381.7" y2="74.4"/>
<line fill="none" stroke="#231F20" x1="366.6" y1="70.1" x2="381.1" y2="70.1"/>
<line fill="none" stroke="#231F20" x1="366.6" y1="65.8" x2="381.1" y2="65.8"/>
<g>
	<defs>
		<rect id="SVGID_5_" width="859.6" height="140.2"/>
	</defs>
	<clipPath id="SVGID_6_">
		<use xlink:href="#SVGID_5_"  overflow="visible"/>
	</clipPath>
	<path clip-path="url(#SVGID_6_)" fill="none" stroke="#231F20" stroke-miterlimit="10" d="M268.2,93.7v46.1 M268.2,139.8l14.4-14.5
		 M268.2,93.7l14.4,14.5 M332.9,99.8l8.5,8.5 M332.8,99.2v8.9 M461.5,119.3l20-6.1 M427.8,112.3v8.9 M421.8,112.3v8.9 M415.9,112.3
		v8.9 M410,112.3v8.9 M404,112.3v8.9 M398.1,112.3v8.9 M392.2,112.3v8.9 M433.7,112.3v8.9 M303.1,113v6.5 M386.2,112.3v8.9
		 M380.3,112.3v8.9 M374.3,112.3v8.9 M368.4,112.3v8.9 M362.5,112.3v8.9 M356.5,112.3v8.9 M350.6,112.3v8.9 M344.6,112.3v8.9
		 M338.7,112.3v8.9 M309,113v6.5 M314.9,113v6.5 M320.9,112.3v8 M326.8,112.3v8 M332.8,112.3v8 M282.5,125.4H459l26.1-9l-3.6-3.2
		l-22.5-5H282.5V125.4z"/>
</g>
<line fill="none" stroke="#231F20" x1="268.4" y1="121.1" x2="282.8" y2="121.1"/>
<line fill="none" stroke="#231F20" x1="267.7" y1="116.8" x2="282.2" y2="116.8"/>
<line fill="none" stroke="#231F20" x1="267.7" y1="112.4" x2="282.2" y2="112.4"/>
<g>
	<defs>
		<rect id="SVGID_7_" width="859.6" height="140.2"/>
	</defs>
	<clipPath id="SVGID_8_">
		<use xlink:href="#SVGID_7_"  overflow="visible"/>
	</clipPath>
	<path clip-path="url(#SVGID_8_)" fill="none" stroke="#231F20" stroke-miterlimit="10" d="M536,93.7v46.1 M536,139.8l14.4-14.5
		 M536,93.7l14.4,14.5 M600.7,99.8l8.5,8.5 M600.5,99.2v8.9 M729.3,119.3l20-6.1 M695.5,112.3v8.9 M689.6,112.3v8.9 M683.7,112.3
		v8.9 M677.7,112.3v8.9 M671.8,112.3v8.9 M665.8,112.3v8.9 M659.9,112.3v8.9 M701.5,112.3v8.9 M570.8,113v6.5 M654,112.3v8.9
		 M648,112.3v8.9 M642.1,112.3v8.9 M636.1,112.3v8.9 M630.2,112.3v8.9 M624.3,112.3v8.9 M618.3,112.3v8.9 M612.4,112.3v8.9
		 M606.5,112.3v8.9 M576.8,113v6.5 M582.7,113v6.5 M588.6,112.3v8 M594.6,112.3v8 M600.5,112.3v8 M550.2,125.4h176.6l26.1-9
		l-3.6-3.2l-22.5-5H550.2V125.4z"/>
</g>
<line fill="none" stroke="#231F20" x1="536.1" y1="121.1" x2="550.6" y2="121.1"/>
<line fill="none" stroke="#231F20" x1="535.5" y1="116.8" x2="549.9" y2="116.8"/>
<line fill="none" stroke="#231F20" x1="535.5" y1="112.4" x2="549.9" y2="112.4"/>
<g>
	<defs>
		<rect id="SVGID_9_" width="859.6" height="140.2"/>
	</defs>
	<clipPath id="SVGID_10_">
		<use xlink:href="#SVGID_9_"  overflow="visible"/>
	</clipPath>
	<path clip-path="url(#SVGID_10_)" fill="none" stroke="#231F20" stroke-miterlimit="10" d="M268.2,0.4v46.1 M268.2,46.5L282.7,32
		 M268.2,0.4l14.4,14.5 M332.9,6.4l8.5,8.5 M332.8,5.9v8.9 M461.5,25.9l20-6.1 M427.8,19v8.9 M421.8,19v8.9 M415.9,19v8.9 M410,19
		v8.9 M404,19v8.9 M398.1,19v8.9 M392.2,19v8.9 M433.7,19v8.9 M303.1,19.6v6.5 M386.2,19v8.9 M380.3,19v8.9 M374.3,19v8.9 M368.4,19
		v8.9 M362.5,19v8.9 M356.5,19v8.9 M350.6,19v8.9 M344.6,19v8.9 M338.7,19v8.9 M309,19.6v6.5 M314.9,19.6v6.5 M320.9,19v8 M326.8,19
		v8 M332.8,19v8 M282.5,32H459l26.1-9l-3.6-3.2l-22.5-5H282.5V32z"/>
</g>
<line fill="none" stroke="#231F20" x1="268.4" y1="27.7" x2="282.8" y2="27.7"/>
<line fill="none" stroke="#231F20" x1="268.4" y1="23.4" x2="282.8" y2="23.4"/>
<line fill="none" stroke="#231F20" x1="268.4" y1="19.1" x2="282.8" y2="19.1"/>
<path fill="none" stroke="#231F20" stroke-miterlimit="10" d="M92.5,47v46.1 M92.5,93.2l14.4-14.5 M92.5,47l14.4,14.5 M157.2,53.1
	l8.5,8.5 M157,52.6v8.9 M285.8,72.6l20-6.1 M252,65.6v8.9 M246.1,65.6v8.9 M240.2,65.6v8.9 M234.2,65.6v8.9 M228.3,65.6v8.9
	 M222.3,65.6v8.9 M216.4,65.6v8.9 M258,65.6v8.9 M127.3,66.3v6.5 M210.5,65.6v8.9 M204.5,65.6v8.9 M198.6,65.6v8.9 M192.6,65.6v8.9
	 M186.7,65.6v8.9 M180.8,65.6v8.9 M174.8,65.6v8.9 M168.9,65.6v8.9 M163,65.6v8.9 M133.3,66.3v6.5 M139.2,66.3v6.5 M145.1,65.6v8
	 M151.1,65.6v8 M157,65.6v8 M106.7,78.7h176.6l26.1-9l-3.6-3.2l-22.5-5H106.7V78.7z"/>
<line fill="none" stroke="#231F20" x1="92" y1="74.4" x2="106.4" y2="74.4"/>
<line fill="none" stroke="#231F20" x1="92" y1="70.1" x2="106.4" y2="70.1"/>
<line fill="none" stroke="#231F20" x1="92" y1="65.8" x2="106.4" y2="65.8"/>
</svg>
