<svg xmlns="http://www.w3.org/2000/svg" xmlns:xlink="http://www.w3.org/1999/xlink" viewBox="0 0 48 48"><defs><style>.a,.e{fill:none;}.b{fill:#ff447c;}.c{clip-path:url(#a);}.d{fill:#231f20;}.e{stroke:#ff447c;}</style><clipPath id="a"><rect class="a" x="3.15" y="11.68" width="41.26" height="36.32"/></clipPath></defs><title>favikon - hotpink</title><rect class="b" x="-0.22" width="48.22" height="48"/><g class="c"><path class="d" d="M10.4,47.59c0-4.62,4.26-12.27,10.66-13.33s13.5,3.9,14.56,7.1A35,35,0,0,1,37,47.24Z"/><path class="d" d="M14.66,37.81,9.33,30.7s-6-5-5.68-12.08,1.78-6.74,2.13-6.39,6.4,6.39,7.11,10S14,27.86,14,27.86l5,7.11Z"/><path class="d" d="M32.43,38.35l5.32-7.1s6-5,5.69-12.08-1.78-6.75-2.13-6.4-6.4,6.4-7.11,10-1.06,5.68-1.06,5.68l-5,7.11Z"/><path class="e" d="M10,47.41l27,.06m-27-.06,27,.06M18.84,34.85l-4.7-7s.06-7.56-8-15.37C3.84,10.25.69,24.53,9.81,30.7l4.7,7Zm9.88,0,4.7-7s-.06-7.56,8-15.37c2.27-2.19,5.41,12.09-3.71,18.26l-4.7,7ZM14.51,47.47a9,9,0,0,1,17.93,0M10,47.41a13.5,13.5,0,0,1,27,.06M18.84,34.85l-4.7-7s.06-7.56-8-15.37C3.84,10.25.69,24.53,9.81,30.7l4.7,7Zm9.88,0,4.7-7s-.06-7.56,8-15.37c2.27-2.19,5.41,12.09-3.71,18.26l-4.7,7ZM14.51,47.47a9,9,0,0,1,17.93,0M10,47.41a13.5,13.5,0,0,1,27,.06"/></g><path class="e" d="M12.26,21.64,8.86,24m-1-9.77-2.1,1.43m3.92.94L6.81,18.5m4.45.36-3.4,2.31m27.42.47L38.68,24m1-9.77,2.1,1.43m-3.92.94,2.87,1.95m-4.45.36,3.4,2.31"/></svg>