<?xml version="1.0" encoding="utf-8"?>
<!-- Generator: Adobe Illustrator 18.0.0, SVG Export Plug-In . SVG Version: 6.00 Build 0)  -->
<!DOCTYPE svg PUBLIC "-//W3C//DTD SVG 1.1//EN" "http://www.w3.org/Graphics/SVG/1.1/DTD/svg11.dtd">
<svg version="1.1" xmlns="http://www.w3.org/2000/svg" xmlns:xlink="http://www.w3.org/1999/xlink" x="0px" y="0px"
	 viewBox="0 0 400 400" enable-background="new 0 0 400 400" xml:space="preserve">
<g id="Layer_1">
</g>
<g id="Layer_2">
</g>
<g id="Layer_4">
</g>
<g id="Layer_3">
	<circle fill="#FFFFFF" cx="200.4" cy="198.9" r="199.6"/>
	<path fill="none" stroke="#FFFFFF" stroke-width="0.5" stroke-miterlimit="10" d="M209.6,141.9l-5.2,3.5 M202.9,130.5l-3.2,2.2
		 M205.6,134.1l-4.4,3 M208.1,137.7l-5.2,3.5 M244.8,141.9l5.2,3.5 M251.5,130.5l3.2,2.2 M248.7,134.1l4.4,3 M246.3,137.7l5.2,3.5"
		/>
	<circle cx="200.4" cy="198.9" r="187.9"/>
	<g>
		<circle fill="none" stroke="#FFFFFF" stroke-width="0.75" stroke-miterlimit="10" cx="200.7" cy="198.1" r="142.6"/>
		<g>
			<g>
				<path fill="none" stroke="#FFFFFF" stroke-miterlimit="10" d="M210.2,180.2c0.3-11.8,10-21.2,21.8-21.2
					c11.9,0,21.5,9.5,21.8,21.3"/>
				<path fill="none" stroke="#FFFFFF" stroke-miterlimit="10" d="M217.5,180.3c0.3-7.8,6.7-14,14.5-14c7.8,0,14.2,6.2,14.5,14"/>
				<path fill="none" stroke="#FFFFFF" stroke-miterlimit="10" d="M240.5,159.9l7.6-11.4c0,0-0.1-12.2,13-24.8
					c3.7-3.5,8.7,19.5-6,29.5l-7.6,11.4L240.5,159.9z"/>
				<path fill="none" stroke="#FFFFFF" stroke-miterlimit="10" d="M127.7,244.3c0,0-2.9-40.6,28.3-39.2s53.4,6,54.2-24.9l43.6,0.1
					c0,0,0,25.3,0,34.5c0,14.8-7.3,28.7-39.9,29.5c-45.7,1.1-62.3,0.3-62.3,0.3s-24-1.9-24,12.8L127.7,244.3z"/>
				<path fill="none" stroke="#FFFFFF" stroke-miterlimit="10" d="M217.5,180.3"/>
				<path fill="none" stroke="#FFFFFF" stroke-miterlimit="10" d="M133.2,247.9c0,0,0.1-31.4,17.9-31.3"/>
				<g>
					<path fill="none" stroke="#FFFFFF" stroke-miterlimit="10" d="M224.5,159.9l-7.6-11.4c0,0,0.1-12.2-13-24.8
						c-3.7-3.5-8.7,19.5,6,29.5l7.6,11.4L224.5,159.9z"/>
				</g>
				<path fill="none" stroke="#FFFFFF" stroke-miterlimit="10" d="M137.7,183.9c8.8-7,21.1-9.1,32.1-4.3
					c11.1,4.8,17.9,15.3,18.8,26.5"/>
				<path fill="none" stroke="#FFFFFF" stroke-miterlimit="10" d="M146,190.9c5.7-3.7,13-4.5,19.6-1.6c6.4,2.8,10.8,8.5,12.1,14.9
					c0,0.2,0.1,0.4,0.1,0.6"/>
				<path fill="none" stroke="#FFFFFF" stroke-miterlimit="10" d="M150.5,198c3.4-2.2,7.8-2.8,11.8-1c3.9,1.7,6.5,5.2,7.3,9.1"/>
			</g>
			<path fill="none" stroke="#FFFFFF" stroke-miterlimit="10" d="M210.2,180.2c0.3-11.8,10-21.2,21.8-21.2
				c11.9,0,21.5,9.5,21.8,21.3"/>
			<path fill="none" stroke="#FFFFFF" stroke-miterlimit="10" d="M217.5,180.3c0.3-7.8,6.7-14,14.5-14c7.8,0,14.2,6.2,14.5,14"/>
			<path fill="none" stroke="#FFFFFF" stroke-miterlimit="10" d="M240.5,159.9l7.6-11.4c0,0-0.1-12.2,13-24.8
				c3.7-3.5,8.7,19.5-6,29.5l-7.6,11.4L240.5,159.9z"/>
			<path fill="none" stroke="#FFFFFF" stroke-miterlimit="10" d="M127.7,244.3c0,0-2.9-40.6,28.3-39.2s53.4,6,54.2-24.9l43.6,0.1
				c0,0,0,25.3,0,34.5c0,14.8-7.3,28.7-39.9,29.5c-45.7,1.1-62.3,0.3-62.3,0.3s-24-1.9-24,12.8L127.7,244.3z"/>
			<path fill="none" stroke="#FFFFFF" stroke-miterlimit="10" d="M133.2,247.9c0,0,0.1-31.9,17.9-31.3c72.4,2.3,64.4-11.7,66.4-36.2
				"/>
			<path fill="none" stroke="#FFFFFF" stroke-miterlimit="10" d="M224.5,159.9l-7.6-11.4c0,0,0.1-12.2-13-24.8
				c-3.7-3.5-8.7,19.5,6,29.5l7.6,11.4L224.5,159.9z"/>
			<path fill="none" stroke="#FFFFFF" stroke-miterlimit="10" d="M137.7,183.9c8.8-7,21.1-9.1,32.1-4.3
				c11.1,4.8,17.9,15.3,18.8,26.5"/>
			<path fill="none" stroke="#FFFFFF" stroke-miterlimit="10" d="M146,190.9c5.7-3.7,13-4.5,19.6-1.6c6.4,2.8,10.8,8.5,12.1,14.9
				c0,0.2,0.1,0.4,0.1,0.6"/>
			<path fill="none" stroke="#FFFFFF" stroke-miterlimit="10" d="M150.5,198c3.4-2.2,7.8-2.8,11.8-1c3.9,1.7,6.5,5.2,7.3,9.1"/>
			<line fill="none" stroke="#FFFFFF" stroke-width="0.5" stroke-miterlimit="10" x1="252.7" y1="134.1" x2="258.2" y2="137.8"/>
			<line fill="none" stroke="#FFFFFF" stroke-width="0.5" stroke-miterlimit="10" x1="255.2" y1="130.4" x2="259.9" y2="133.5"/>
			<line fill="none" stroke="#FFFFFF" stroke-width="0.5" stroke-miterlimit="10" x1="258.2" y1="126.5" x2="261.6" y2="128.9"/>
			<line fill="none" stroke="#FFFFFF" stroke-width="0.5" stroke-miterlimit="10" x1="251.1" y1="138.6" x2="256.5" y2="142.3"/>
			<g>
				<line fill="none" stroke="#FFFFFF" stroke-width="0.5" stroke-miterlimit="10" x1="212.3" y1="134.1" x2="206.8" y2="137.8"/>
				<line fill="none" stroke="#FFFFFF" stroke-width="0.5" stroke-miterlimit="10" x1="209.7" y1="130.4" x2="205.1" y2="133.5"/>
				<line fill="none" stroke="#FFFFFF" stroke-width="0.5" stroke-miterlimit="10" x1="206.8" y1="126.5" x2="203.4" y2="128.9"/>
				<line fill="none" stroke="#FFFFFF" stroke-width="0.5" stroke-miterlimit="10" x1="213.9" y1="138.6" x2="208.4" y2="142.3"/>
			</g>
		</g>
		<circle fill="none" stroke="#FFFFFF" stroke-width="0.75" stroke-miterlimit="10" cx="200.7" cy="198.1" r="136.6"/>
		<circle fill="none" stroke="#FFFFFF" stroke-width="0.75" stroke-miterlimit="10" cx="200.7" cy="198.1" r="142.6"/>
		<circle fill="none" stroke="#FFFFFF" stroke-width="0.75" stroke-miterlimit="10" cx="200.7" cy="198.1" r="136.6"/>
		<circle fill="#FFFFFF" stroke="#FFFFFF" stroke-miterlimit="10" cx="200.3" cy="69.8" r="2.1"/>
		<circle fill="#FFFFFF" stroke="#FFFFFF" stroke-miterlimit="10" cx="191.3" cy="70.2" r="2.1"/>
		<circle fill="#FFFFFF" stroke="#FFFFFF" stroke-miterlimit="10" cx="182.4" cy="71.2" r="2.1"/>
		<circle fill="#FFFFFF" stroke="#FFFFFF" stroke-miterlimit="10" cx="173.6" cy="72.8" r="2.1"/>
		<circle fill="#FFFFFF" stroke="#FFFFFF" stroke-miterlimit="10" cx="164.9" cy="74.9" r="2.1"/>
		<circle fill="#FFFFFF" stroke="#FFFFFF" stroke-miterlimit="10" cx="156.4" cy="77.7" r="2.1"/>
		<circle fill="#FFFFFF" stroke="#FFFFFF" stroke-miterlimit="10" cx="148.1" cy="81.1" r="2.1"/>
		<circle fill="#FFFFFF" stroke="#FFFFFF" stroke-miterlimit="10" cx="140.1" cy="85.1" r="2.1"/>
		<circle fill="#FFFFFF" stroke="#FFFFFF" stroke-miterlimit="10" cx="132.4" cy="89.6" r="2.1"/>
		<circle fill="#FFFFFF" stroke="#FFFFFF" stroke-miterlimit="10" cx="125" cy="94.6" r="2.1"/>
		<circle fill="#FFFFFF" stroke="#FFFFFF" stroke-miterlimit="10" cx="117.9" cy="100.2" r="2.1"/>
		<circle fill="#FFFFFF" stroke="#FFFFFF" stroke-miterlimit="10" cx="111.3" cy="106.2" r="2.1"/>
		<circle fill="#FFFFFF" stroke="#FFFFFF" stroke-miterlimit="10" cx="105.1" cy="112.6" r="2.1"/>
		<circle fill="#FFFFFF" stroke="#FFFFFF" stroke-miterlimit="10" cx="99.4" cy="119.5" r="2.1"/>
		<circle fill="#FFFFFF" stroke="#FFFFFF" stroke-miterlimit="10" cx="94.2" cy="126.8" r="2.1"/>
		<circle fill="#FFFFFF" stroke="#FFFFFF" stroke-miterlimit="10" cx="89.4" cy="134.4" r="2.1"/>
		<circle fill="#FFFFFF" stroke="#FFFFFF" stroke-miterlimit="10" cx="85.3" cy="142.3" r="2.1"/>
		<circle fill="#FFFFFF" stroke="#FFFFFF" stroke-miterlimit="10" cx="81.7" cy="150.5" r="2.1"/>
		<circle fill="#FFFFFF" stroke="#FFFFFF" stroke-miterlimit="10" cx="78.6" cy="158.9" r="2.1"/>
		<circle fill="#FFFFFF" stroke="#FFFFFF" stroke-miterlimit="10" cx="76.2" cy="167.5" r="2.1"/>
		<circle fill="#FFFFFF" stroke="#FFFFFF" stroke-miterlimit="10" cx="74.4" cy="176.3" r="2.1"/>
		<circle fill="#FFFFFF" stroke="#FFFFFF" stroke-miterlimit="10" cx="73.2" cy="185.2" r="2.1"/>
		<circle fill="#FFFFFF" stroke="#FFFFFF" stroke-miterlimit="10" cx="72.6" cy="194.1" r="2.1"/>
		<circle fill="#FFFFFF" stroke="#FFFFFF" stroke-miterlimit="10" cx="72.6" cy="203" r="2.1"/>
		<circle fill="#FFFFFF" stroke="#FFFFFF" stroke-miterlimit="10" cx="73.3" cy="212" r="2.1"/>
		<circle fill="#FFFFFF" stroke="#FFFFFF" stroke-miterlimit="10" cx="74.5" cy="220.8" r="2.1"/>
		<circle fill="#FFFFFF" stroke="#FFFFFF" stroke-miterlimit="10" cx="76.4" cy="229.6" r="2.1"/>
		<circle fill="#FFFFFF" stroke="#FFFFFF" stroke-miterlimit="10" cx="78.9" cy="238.2" r="2.1"/>
		<circle fill="#FFFFFF" stroke="#FFFFFF" stroke-miterlimit="10" cx="82" cy="246.6" r="2.1"/>
		<circle fill="#FFFFFF" stroke="#FFFFFF" stroke-miterlimit="10" cx="85.7" cy="254.7" r="2.1"/>
		<circle fill="#FFFFFF" stroke="#FFFFFF" stroke-miterlimit="10" cx="89.9" cy="262.6" r="2.1"/>
		<circle fill="#FFFFFF" stroke="#FFFFFF" stroke-miterlimit="10" cx="94.7" cy="270.2" r="2.1"/>
		<circle fill="#FFFFFF" stroke="#FFFFFF" stroke-miterlimit="10" cx="100" cy="277.4" r="2.1"/>
		<circle fill="#FFFFFF" stroke="#FFFFFF" stroke-miterlimit="10" cx="105.8" cy="284.3" r="2.1"/>
		<circle fill="#FFFFFF" stroke="#FFFFFF" stroke-miterlimit="10" cx="112" cy="290.7" r="2.1"/>
		<circle fill="#FFFFFF" stroke="#FFFFFF" stroke-miterlimit="10" cx="118.7" cy="296.6" r="2.1"/>
		<circle fill="#FFFFFF" stroke="#FFFFFF" stroke-miterlimit="10" cx="125.8" cy="302.1" r="2.1"/>
		<circle fill="#FFFFFF" stroke="#FFFFFF" stroke-miterlimit="10" cx="133.2" cy="307.1" r="2.1"/>
		<circle fill="#FFFFFF" stroke="#FFFFFF" stroke-miterlimit="10" cx="141" cy="311.5" r="2.1"/>
		<circle fill="#FFFFFF" stroke="#FFFFFF" stroke-miterlimit="10" cx="149" cy="315.4" r="2.1"/>
		<circle fill="#FFFFFF" stroke="#FFFFFF" stroke-miterlimit="10" cx="157.3" cy="318.8" r="2.1"/>
		<circle fill="#FFFFFF" stroke="#FFFFFF" stroke-miterlimit="10" cx="165.9" cy="321.5" r="2.1"/>
		<circle fill="#FFFFFF" stroke="#FFFFFF" stroke-miterlimit="10" cx="174.6" cy="323.6" r="2.1"/>
		<circle fill="#FFFFFF" stroke="#FFFFFF" stroke-miterlimit="10" cx="183.4" cy="325.1" r="2.1"/>
		<circle fill="#FFFFFF" stroke="#FFFFFF" stroke-miterlimit="10" cx="192.3" cy="326" r="2.1"/>
		<circle fill="#FFFFFF" stroke="#FFFFFF" stroke-miterlimit="10" cx="201.2" cy="326.3" r="2.1"/>
		<circle fill="#FFFFFF" stroke="#FFFFFF" stroke-miterlimit="10" cx="210.2" cy="326" r="2.1"/>
		<circle fill="#FFFFFF" stroke="#FFFFFF" stroke-miterlimit="10" cx="219.1" cy="325" r="2.1"/>
		<circle fill="#FFFFFF" stroke="#FFFFFF" stroke-miterlimit="10" cx="227.9" cy="323.4" r="2.1"/>
		<circle fill="#FFFFFF" stroke="#FFFFFF" stroke-miterlimit="10" cx="236.6" cy="321.2" r="2.1"/>
		<circle fill="#FFFFFF" stroke="#FFFFFF" stroke-miterlimit="10" cx="245.1" cy="318.4" r="2.1"/>
		<circle fill="#FFFFFF" stroke="#FFFFFF" stroke-miterlimit="10" cx="253.4" cy="315" r="2.1"/>
		<circle fill="#FFFFFF" stroke="#FFFFFF" stroke-miterlimit="10" cx="261.4" cy="311.1" r="2.1"/>
		<circle fill="#FFFFFF" stroke="#FFFFFF" stroke-miterlimit="10" cx="269.1" cy="306.6" r="2.1"/>
		<circle fill="#FFFFFF" stroke="#FFFFFF" stroke-miterlimit="10" cx="276.5" cy="301.5" r="2.1"/>
		<circle fill="#FFFFFF" stroke="#FFFFFF" stroke-miterlimit="10" cx="283.6" cy="296" r="2.1"/>
		<circle fill="#FFFFFF" stroke="#FFFFFF" stroke-miterlimit="10" cx="290.2" cy="290" r="2.1"/>
		<circle fill="#FFFFFF" stroke="#FFFFFF" stroke-miterlimit="10" cx="296.4" cy="283.5" r="2.1"/>
		<circle fill="#FFFFFF" stroke="#FFFFFF" stroke-miterlimit="10" cx="302.1" cy="276.6" r="2.1"/>
		<circle fill="#FFFFFF" stroke="#FFFFFF" stroke-miterlimit="10" cx="307.3" cy="269.4" r="2.1"/>
		<circle fill="#FFFFFF" stroke="#FFFFFF" stroke-miterlimit="10" cx="312" cy="261.8" r="2.1"/>
		<circle fill="#FFFFFF" stroke="#FFFFFF" stroke-miterlimit="10" cx="316.2" cy="253.9" r="2.1"/>
		<circle fill="#FFFFFF" stroke="#FFFFFF" stroke-miterlimit="10" cx="319.8" cy="245.7" r="2.1"/>
		<circle fill="#FFFFFF" stroke="#FFFFFF" stroke-miterlimit="10" cx="322.9" cy="237.2" r="2.1"/>
		<circle fill="#FFFFFF" stroke="#FFFFFF" stroke-miterlimit="10" cx="325.3" cy="228.6" r="2.1"/>
		<circle fill="#FFFFFF" stroke="#FFFFFF" stroke-miterlimit="10" cx="327.1" cy="219.9" r="2.1"/>
		<circle fill="#FFFFFF" stroke="#FFFFFF" stroke-miterlimit="10" cx="328.3" cy="211" r="2.1"/>
		<circle fill="#FFFFFF" stroke="#FFFFFF" stroke-miterlimit="10" cx="328.9" cy="202.1" r="2.1"/>
		<circle fill="#FFFFFF" stroke="#FFFFFF" stroke-miterlimit="10" cx="328.9" cy="193.1" r="2.1"/>
		<circle fill="#FFFFFF" stroke="#FFFFFF" stroke-miterlimit="10" cx="328.2" cy="184.2" r="2.1"/>
		<circle fill="#FFFFFF" stroke="#FFFFFF" stroke-miterlimit="10" cx="327" cy="175.3" r="2.1"/>
		<circle fill="#FFFFFF" stroke="#FFFFFF" stroke-miterlimit="10" cx="325.1" cy="166.6" r="2.1"/>
		<circle fill="#FFFFFF" stroke="#FFFFFF" stroke-miterlimit="10" cx="322.6" cy="158" r="2.1"/>
		<circle fill="#FFFFFF" stroke="#FFFFFF" stroke-miterlimit="10" cx="319.5" cy="149.6" r="2.1"/>
		<circle fill="#FFFFFF" stroke="#FFFFFF" stroke-miterlimit="10" cx="315.8" cy="141.4" r="2.1"/>
		<circle fill="#FFFFFF" stroke="#FFFFFF" stroke-miterlimit="10" cx="311.6" cy="133.5" r="2.1"/>
		<circle fill="#FFFFFF" stroke="#FFFFFF" stroke-miterlimit="10" cx="306.8" cy="126" r="2.1"/>
		<circle fill="#FFFFFF" stroke="#FFFFFF" stroke-miterlimit="10" cx="301.5" cy="118.7" r="2.1"/>
		<circle fill="#FFFFFF" stroke="#FFFFFF" stroke-miterlimit="10" cx="295.7" cy="111.9" r="2.1"/>
		<circle fill="#FFFFFF" stroke="#FFFFFF" stroke-miterlimit="10" cx="289.5" cy="105.5" r="2.1"/>
		<circle fill="#FFFFFF" stroke="#FFFFFF" stroke-miterlimit="10" cx="282.8" cy="99.5" r="2.1"/>
		<circle fill="#FFFFFF" stroke="#FFFFFF" stroke-miterlimit="10" cx="275.7" cy="94.1" r="2.1"/>
		<circle fill="#FFFFFF" stroke="#FFFFFF" stroke-miterlimit="10" cx="268.3" cy="89.1" r="2.1"/>
		<circle fill="#FFFFFF" stroke="#FFFFFF" stroke-miterlimit="10" cx="260.5" cy="84.6" r="2.1"/>
		<circle fill="#FFFFFF" stroke="#FFFFFF" stroke-miterlimit="10" cx="252.5" cy="80.7" r="2.1"/>
		<circle fill="#FFFFFF" stroke="#FFFFFF" stroke-miterlimit="10" cx="244.1" cy="77.4" r="2.1"/>
		<circle fill="#FFFFFF" stroke="#FFFFFF" stroke-miterlimit="10" cx="235.6" cy="74.7" r="2.1"/>
		<circle fill="#FFFFFF" stroke="#FFFFFF" stroke-miterlimit="10" cx="226.9" cy="72.5" r="2.1"/>
		<circle fill="#FFFFFF" stroke="#FFFFFF" stroke-miterlimit="10" cx="218.1" cy="71" r="2.1"/>
		<circle fill="#FFFFFF" stroke="#FFFFFF" stroke-miterlimit="10" cx="209.2" cy="70.1" r="2.1"/>
		<line fill="none" stroke="#FFFFFF" stroke-miterlimit="10" x1="200.3" y1="32.2" x2="200.3" y2="48.2"/>
		<line fill="none" stroke="#FFFFFF" stroke-miterlimit="10" x1="191.5" y1="32.2" x2="192.4" y2="48.4"/>
		<line fill="none" stroke="#FFFFFF" stroke-miterlimit="10" x1="182.8" y1="32.9" x2="184.5" y2="49"/>
		<line fill="none" stroke="#FFFFFF" stroke-miterlimit="10" x1="174.2" y1="34.1" x2="176.7" y2="50.1"/>
		<line fill="none" stroke="#FFFFFF" stroke-miterlimit="10" x1="165.6" y1="35.7" x2="168.9" y2="51.5"/>
		<line fill="none" stroke="#FFFFFF" stroke-miterlimit="10" x1="157.1" y1="37.7" x2="161.3" y2="53.3"/>
		<line fill="none" stroke="#FFFFFF" stroke-miterlimit="10" x1="148.7" y1="40.2" x2="153.7" y2="55.6"/>
		<line fill="none" stroke="#FFFFFF" stroke-miterlimit="10" x1="140.5" y1="43.1" x2="146.3" y2="58.2"/>
		<line fill="none" stroke="#FFFFFF" stroke-miterlimit="10" x1="132.4" y1="46.5" x2="139" y2="61.3"/>
		<line fill="none" stroke="#FFFFFF" stroke-miterlimit="10" x1="124.5" y1="50.3" x2="131.8" y2="64.7"/>
		<line fill="none" stroke="#FFFFFF" stroke-miterlimit="10" x1="116.8" y1="54.4" x2="124.9" y2="68.4"/>
		<line fill="none" stroke="#FFFFFF" stroke-miterlimit="10" x1="109.4" y1="59" x2="118.2" y2="72.6"/>
		<line fill="none" stroke="#FFFFFF" stroke-miterlimit="10" x1="102.2" y1="64" x2="111.7" y2="77"/>
		<line fill="none" stroke="#FFFFFF" stroke-miterlimit="10" x1="95.3" y1="69.3" x2="105.4" y2="81.8"/>
		<line fill="none" stroke="#FFFFFF" stroke-miterlimit="10" x1="88.6" y1="75" x2="99.4" y2="87"/>
		<line fill="none" stroke="#FFFFFF" stroke-miterlimit="10" x1="82.3" y1="81" x2="93.7" y2="92.4"/>
		<line fill="none" stroke="#FFFFFF" stroke-miterlimit="10" x1="76.3" y1="87.3" x2="88.3" y2="98.1"/>
		<line fill="none" stroke="#FFFFFF" stroke-miterlimit="10" x1="70.6" y1="94" x2="83.2" y2="104.1"/>
		<line fill="none" stroke="#FFFFFF" stroke-miterlimit="10" x1="65.3" y1="100.9" x2="78.4" y2="110.4"/>
		<line fill="none" stroke="#FFFFFF" stroke-miterlimit="10" x1="60.4" y1="108.1" x2="73.9" y2="116.9"/>
		<line fill="none" stroke="#FFFFFF" stroke-miterlimit="10" x1="55.8" y1="115.6" x2="69.8" y2="123.6"/>
		<line fill="none" stroke="#FFFFFF" stroke-miterlimit="10" x1="51.6" y1="123.2" x2="66" y2="130.6"/>
		<line fill="none" stroke="#FFFFFF" stroke-miterlimit="10" x1="47.9" y1="131.1" x2="62.6" y2="137.7"/>
		<line fill="none" stroke="#FFFFFF" stroke-miterlimit="10" x1="44.5" y1="139.2" x2="59.6" y2="145"/>
		<line fill="none" stroke="#FFFFFF" stroke-miterlimit="10" x1="41.6" y1="147.4" x2="57" y2="152.4"/>
		<line fill="none" stroke="#FFFFFF" stroke-miterlimit="10" x1="39.2" y1="155.8" x2="54.8" y2="160"/>
		<line fill="none" stroke="#FFFFFF" stroke-miterlimit="10" x1="37.1" y1="164.3" x2="52.9" y2="167.7"/>
		<line fill="none" stroke="#FFFFFF" stroke-miterlimit="10" x1="35.5" y1="172.9" x2="51.5" y2="175.4"/>
		<line fill="none" stroke="#FFFFFF" stroke-miterlimit="10" x1="34.4" y1="181.6" x2="50.5" y2="183.3"/>
		<line fill="none" stroke="#FFFFFF" stroke-miterlimit="10" x1="33.7" y1="190.3" x2="49.9" y2="191.1"/>
		<line fill="none" stroke="#FFFFFF" stroke-miterlimit="10" x1="33.5" y1="199" x2="49.7" y2="199"/>
		<line fill="none" stroke="#FFFFFF" stroke-miterlimit="10" x1="33.7" y1="207.8" x2="49.9" y2="206.9"/>
		<line fill="none" stroke="#FFFFFF" stroke-miterlimit="10" x1="34.4" y1="216.5" x2="50.5" y2="214.8"/>
		<line fill="none" stroke="#FFFFFF" stroke-miterlimit="10" x1="35.6" y1="225.1" x2="51.5" y2="222.6"/>
		<line fill="none" stroke="#FFFFFF" stroke-miterlimit="10" x1="37.2" y1="233.7" x2="53" y2="230.4"/>
		<line fill="none" stroke="#FFFFFF" stroke-miterlimit="10" x1="39.2" y1="242.2" x2="54.8" y2="238"/>
		<line fill="none" stroke="#FFFFFF" stroke-miterlimit="10" x1="41.7" y1="250.6" x2="57.1" y2="245.6"/>
		<line fill="none" stroke="#FFFFFF" stroke-miterlimit="10" x1="44.6" y1="258.8" x2="59.7" y2="253"/>
		<line fill="none" stroke="#FFFFFF" stroke-miterlimit="10" x1="48" y1="266.9" x2="62.7" y2="260.3"/>
		<line fill="none" stroke="#FFFFFF" stroke-miterlimit="10" x1="51.7" y1="274.8" x2="66.1" y2="267.4"/>
		<line fill="none" stroke="#FFFFFF" stroke-miterlimit="10" x1="55.9" y1="282.4" x2="69.9" y2="274.4"/>
		<line fill="none" stroke="#FFFFFF" stroke-miterlimit="10" x1="60.5" y1="289.9" x2="74" y2="281.1"/>
		<line fill="none" stroke="#FFFFFF" stroke-miterlimit="10" x1="65.4" y1="297.1" x2="78.5" y2="287.6"/>
		<line fill="none" stroke="#FFFFFF" stroke-miterlimit="10" x1="70.8" y1="304" x2="83.3" y2="293.8"/>
		<line fill="none" stroke="#FFFFFF" stroke-miterlimit="10" x1="76.4" y1="310.7" x2="88.5" y2="299.8"/>
		<line fill="none" stroke="#FFFFFF" stroke-miterlimit="10" x1="82.5" y1="317" x2="93.9" y2="305.6"/>
		<line fill="none" stroke="#FFFFFF" stroke-miterlimit="10" x1="88.8" y1="323" x2="99.6" y2="311"/>
		<line fill="none" stroke="#FFFFFF" stroke-miterlimit="10" x1="95.5" y1="328.7" x2="105.6" y2="316.1"/>
		<line fill="none" stroke="#FFFFFF" stroke-miterlimit="10" x1="102.4" y1="334" x2="111.9" y2="320.9"/>
		<line fill="none" stroke="#FFFFFF" stroke-miterlimit="10" x1="109.6" y1="338.9" x2="118.4" y2="325.4"/>
		<line fill="none" stroke="#FFFFFF" stroke-miterlimit="10" x1="117.1" y1="343.5" x2="125.1" y2="329.5"/>
		<line fill="none" stroke="#FFFFFF" stroke-miterlimit="10" x1="124.7" y1="347.6" x2="132.1" y2="333.2"/>
		<line fill="none" stroke="#FFFFFF" stroke-miterlimit="10" x1="132.6" y1="351.4" x2="139.2" y2="336.6"/>
		<line fill="none" stroke="#FFFFFF" stroke-miterlimit="10" x1="140.7" y1="354.7" x2="146.5" y2="339.6"/>
		<line fill="none" stroke="#FFFFFF" stroke-miterlimit="10" x1="148.9" y1="357.6" x2="153.9" y2="342.3"/>
		<line fill="none" stroke="#FFFFFF" stroke-miterlimit="10" x1="157.3" y1="360.1" x2="161.5" y2="344.5"/>
		<line fill="none" stroke="#FFFFFF" stroke-miterlimit="10" x1="165.8" y1="362.2" x2="169.2" y2="346.3"/>
		<line fill="none" stroke="#FFFFFF" stroke-miterlimit="10" x1="174.4" y1="363.7" x2="176.9" y2="347.8"/>
		<line fill="none" stroke="#FFFFFF" stroke-miterlimit="10" x1="183.1" y1="364.9" x2="184.8" y2="348.8"/>
		<line fill="none" stroke="#FFFFFF" stroke-miterlimit="10" x1="191.8" y1="365.6" x2="192.6" y2="349.4"/>
		<line fill="none" stroke="#FFFFFF" stroke-miterlimit="10" x1="200.5" y1="365.6" x2="200.5" y2="349.6"/>
		<line fill="none" stroke="#FFFFFF" stroke-miterlimit="10" x1="209.2" y1="365.5" x2="208.4" y2="349.4"/>
		<line fill="none" stroke="#FFFFFF" stroke-miterlimit="10" x1="218" y1="364.8" x2="216.3" y2="348.8"/>
		<line fill="none" stroke="#FFFFFF" stroke-miterlimit="10" x1="226.6" y1="363.7" x2="224.1" y2="347.7"/>
		<line fill="none" stroke="#FFFFFF" stroke-miterlimit="10" x1="235.2" y1="362.1" x2="231.8" y2="346.3"/>
		<line fill="none" stroke="#FFFFFF" stroke-miterlimit="10" x1="243.7" y1="360.1" x2="239.5" y2="344.4"/>
		<line fill="none" stroke="#FFFFFF" stroke-miterlimit="10" x1="252.1" y1="357.6" x2="247.1" y2="342.2"/>
		<line fill="none" stroke="#FFFFFF" stroke-miterlimit="10" x1="260.3" y1="354.6" x2="254.5" y2="339.6"/>
		<line fill="none" stroke="#FFFFFF" stroke-miterlimit="10" x1="268.4" y1="351.3" x2="261.8" y2="336.5"/>
		<line fill="none" stroke="#FFFFFF" stroke-miterlimit="10" x1="276.3" y1="347.5" x2="268.9" y2="333.1"/>
		<line fill="none" stroke="#FFFFFF" stroke-miterlimit="10" x1="283.9" y1="343.4" x2="275.9" y2="329.4"/>
		<line fill="none" stroke="#FFFFFF" stroke-miterlimit="10" x1="291.4" y1="338.8" x2="282.6" y2="325.2"/>
		<line fill="none" stroke="#FFFFFF" stroke-miterlimit="10" x1="298.6" y1="333.8" x2="289.1" y2="320.8"/>
		<line fill="none" stroke="#FFFFFF" stroke-miterlimit="10" x1="305.5" y1="328.5" x2="295.3" y2="315.9"/>
		<line fill="none" stroke="#FFFFFF" stroke-miterlimit="10" x1="312.1" y1="322.8" x2="301.3" y2="310.8"/>
		<line fill="none" stroke="#FFFFFF" stroke-miterlimit="10" x1="318.5" y1="316.8" x2="307" y2="305.4"/>
		<line fill="none" stroke="#FFFFFF" stroke-miterlimit="10" x1="324.5" y1="310.5" x2="312.5" y2="299.7"/>
		<line fill="none" stroke="#FFFFFF" stroke-miterlimit="10" x1="330.2" y1="303.8" x2="317.6" y2="293.6"/>
		<line fill="none" stroke="#FFFFFF" stroke-miterlimit="10" x1="335.5" y1="296.9" x2="322.4" y2="287.4"/>
		<line fill="none" stroke="#FFFFFF" stroke-miterlimit="10" x1="340.4" y1="289.7" x2="326.9" y2="280.9"/>
		<line fill="none" stroke="#FFFFFF" stroke-miterlimit="10" x1="345" y1="282.2" x2="331" y2="274.1"/>
		<line fill="none" stroke="#FFFFFF" stroke-miterlimit="10" x1="349.1" y1="274.5" x2="334.7" y2="267.2"/>
		<line fill="none" stroke="#FFFFFF" stroke-miterlimit="10" x1="352.9" y1="266.7" x2="338.1" y2="260.1"/>
		<line fill="none" stroke="#FFFFFF" stroke-miterlimit="10" x1="356.2" y1="258.6" x2="341.1" y2="252.8"/>
		<line fill="none" stroke="#FFFFFF" stroke-miterlimit="10" x1="359.1" y1="250.3" x2="343.8" y2="245.3"/>
		<line fill="none" stroke="#FFFFFF" stroke-miterlimit="10" x1="361.6" y1="242" x2="346" y2="237.8"/>
		<line fill="none" stroke="#FFFFFF" stroke-miterlimit="10" x1="363.6" y1="233.5" x2="347.8" y2="230.1"/>
		<line fill="none" stroke="#FFFFFF" stroke-miterlimit="10" x1="365.2" y1="224.9" x2="349.3" y2="222.3"/>
		<line fill="none" stroke="#FFFFFF" stroke-miterlimit="10" x1="366.4" y1="216.2" x2="350.3" y2="214.5"/>
		<line fill="none" stroke="#FFFFFF" stroke-miterlimit="10" x1="367" y1="207.5" x2="350.9" y2="206.7"/>
		<line fill="none" stroke="#FFFFFF" stroke-miterlimit="10" x1="367.3" y1="198.8" x2="351.1" y2="198.8"/>
		<line fill="none" stroke="#FFFFFF" stroke-miterlimit="10" x1="367" y1="190" x2="350.9" y2="190.9"/>
		<line fill="none" stroke="#FFFFFF" stroke-miterlimit="10" x1="366.3" y1="181.3" x2="350.3" y2="183"/>
		<line fill="none" stroke="#FFFFFF" stroke-miterlimit="10" x1="365.2" y1="172.7" x2="349.2" y2="175.2"/>
		<line fill="none" stroke="#FFFFFF" stroke-miterlimit="10" x1="363.6" y1="164.1" x2="347.8" y2="167.4"/>
		<line fill="none" stroke="#FFFFFF" stroke-miterlimit="10" x1="361.5" y1="155.6" x2="345.9" y2="159.8"/>
		<line fill="none" stroke="#FFFFFF" stroke-miterlimit="10" x1="359.1" y1="147.2" x2="343.7" y2="152.2"/>
		<line fill="none" stroke="#FFFFFF" stroke-miterlimit="10" x1="356.1" y1="139" x2="341" y2="144.8"/>
		<line fill="none" stroke="#FFFFFF" stroke-miterlimit="10" x1="352.8" y1="130.9" x2="338" y2="137.5"/>
		<line fill="none" stroke="#FFFFFF" stroke-miterlimit="10" x1="349" y1="123" x2="334.6" y2="130.4"/>
		<line fill="none" stroke="#FFFFFF" stroke-miterlimit="10" x1="344.8" y1="115.3" x2="330.8" y2="123.4"/>
		<line fill="none" stroke="#FFFFFF" stroke-miterlimit="10" x1="340.3" y1="107.9" x2="326.7" y2="116.7"/>
		<line fill="none" stroke="#FFFFFF" stroke-miterlimit="10" x1="335.3" y1="100.7" x2="322.2" y2="110.2"/>
		<line fill="none" stroke="#FFFFFF" stroke-miterlimit="10" x1="330" y1="93.8" x2="317.4" y2="103.9"/>
		<line fill="none" stroke="#FFFFFF" stroke-miterlimit="10" x1="324.3" y1="87.1" x2="312.3" y2="98"/>
		<line fill="none" stroke="#FFFFFF" stroke-miterlimit="10" x1="318.3" y1="80.8" x2="306.9" y2="92.2"/>
		<line fill="none" stroke="#FFFFFF" stroke-miterlimit="10" x1="312" y1="74.8" x2="301.1" y2="86.8"/>
		<line fill="none" stroke="#FFFFFF" stroke-miterlimit="10" x1="305.3" y1="69.1" x2="295.1" y2="81.7"/>
		<line fill="none" stroke="#FFFFFF" stroke-miterlimit="10" x1="298.4" y1="63.8" x2="288.9" y2="76.9"/>
		<line fill="none" stroke="#FFFFFF" stroke-miterlimit="10" x1="291.2" y1="58.9" x2="282.4" y2="72.4"/>
		<line fill="none" stroke="#FFFFFF" stroke-miterlimit="10" x1="283.7" y1="54.3" x2="275.6" y2="68.3"/>
		<line fill="none" stroke="#FFFFFF" stroke-miterlimit="10" x1="276" y1="50.1" x2="268.7" y2="64.5"/>
		<line fill="none" stroke="#FFFFFF" stroke-miterlimit="10" x1="268.1" y1="46.4" x2="261.6" y2="61.2"/>
		<line fill="none" stroke="#FFFFFF" stroke-miterlimit="10" x1="260.1" y1="43.1" x2="254.3" y2="58.1"/>
		<line fill="none" stroke="#FFFFFF" stroke-miterlimit="10" x1="251.8" y1="40.1" x2="246.8" y2="55.5"/>
		<line fill="none" stroke="#FFFFFF" stroke-miterlimit="10" x1="243.5" y1="37.7" x2="239.3" y2="53.3"/>
		<line fill="none" stroke="#FFFFFF" stroke-miterlimit="10" x1="235" y1="35.6" x2="231.6" y2="51.4"/>
		<line fill="none" stroke="#FFFFFF" stroke-miterlimit="10" x1="226.4" y1="34" x2="223.8" y2="50"/>
		<line fill="none" stroke="#FFFFFF" stroke-miterlimit="10" x1="217.7" y1="32.9" x2="216" y2="49"/>
		<line fill="none" stroke="#FFFFFF" stroke-miterlimit="10" x1="209" y1="32.2" x2="208.1" y2="48.4"/>
	</g>
</g>
</svg>
