<?xml version="1.0" encoding="utf-8"?>
<!-- Generator: Adobe Illustrator 18.0.0, SVG Export Plug-In . SVG Version: 6.00 Build 0)  -->
<!DOCTYPE svg PUBLIC "-//W3C//DTD SVG 1.1//EN" "http://www.w3.org/Graphics/SVG/1.1/DTD/svg11.dtd">
<svg version="1.1" xmlns="http://www.w3.org/2000/svg" xmlns:xlink="http://www.w3.org/1999/xlink" x="0px" y="0px"
	 viewBox="0 0 400 400" enable-background="new 0 0 400 400" xml:space="preserve">
<g id="Layer_1">
</g>
<g id="Layer_2">
</g>
<g id="Layer_4">
</g>
<g id="Layer_3">
	<g>
		<circle fill="none" stroke="#FFFFFF" stroke-width="0.75" stroke-miterlimit="10" cx="200" cy="198.4" r="170.6"/>
		<g>
			<g>
				<path fill="none" stroke="#FFFFFF" stroke-miterlimit="10" d="M211.4,177c0.4-14.1,11.9-25.4,26.1-25.4
					c14.2,0,25.7,11.3,26.1,25.5"/>
				<path fill="none" stroke="#FFFFFF" stroke-miterlimit="10" d="M220.1,177.1c0.3-9.3,8-16.7,17.3-16.7c9.4,0,17,7.4,17.3,16.7"/>
				<path fill="none" stroke="#FFFFFF" stroke-miterlimit="10" d="M247.6,152.7l9.1-13.6c0,0-0.1-14.6,15.5-29.7
					c4.4-4.2,10.5,23.4-7.2,35.3l-9.1,13.6L247.6,152.7z"/>
				<path fill="none" stroke="#FFFFFF" stroke-miterlimit="10" d="M112.6,253.7c0,0-3.5-48.6,33.8-46.8s63.9,7.2,64.9-29.8l52.1,0.1
					c0,0,0,30.3,0,41.3c0,17.7-8.8,34.4-47.7,35.3c-54.6,1.3-74.5,0.3-74.5,0.3s-28.7-2.3-28.7,15.3L112.6,253.7z"/>
				<path fill="none" stroke="#FFFFFF" stroke-miterlimit="10" d="M220.1,177.1"/>
				<path fill="none" stroke="#FFFFFF" stroke-miterlimit="10" d="M119.3,257.9c0,0,0.1-37.5,21.4-37.5"/>
				<g>
					<path fill="none" stroke="#FFFFFF" stroke-miterlimit="10" d="M228.5,152.7l-9.1-13.6c0,0,0.1-14.6-15.5-29.7
						c-4.4-4.2-10.5,23.4,7.2,35.3l9.1,13.6L228.5,152.7z"/>
				</g>
				<path fill="none" stroke="#FFFFFF" stroke-miterlimit="10" d="M124.7,181.5c10.5-8.4,25.2-10.8,38.4-5.1
					c13.2,5.8,21.5,18.2,22.4,31.7"/>
				<path fill="none" stroke="#FFFFFF" stroke-miterlimit="10" d="M134.6,189.8c6.8-4.4,15.5-5.4,23.5-1.9
					c7.7,3.4,12.9,10.1,14.4,17.8c0.1,0.2,0.1,0.5,0.1,0.7"/>
				<path fill="none" stroke="#FFFFFF" stroke-miterlimit="10" d="M139.9,198.3c4.1-2.7,9.4-3.3,14.1-1.2c4.7,2,7.8,6.2,8.7,10.9"/>
			</g>
			<path fill="none" stroke="#FFFFFF" stroke-miterlimit="10" d="M211.4,177c0.4-14.1,11.9-25.4,26.1-25.4
				c14.2,0,25.7,11.3,26.1,25.5"/>
			<path fill="none" stroke="#FFFFFF" stroke-miterlimit="10" d="M220.1,177.1c0.3-9.3,8-16.7,17.3-16.7c9.4,0,17,7.4,17.3,16.7"/>
			<path fill="none" stroke="#FFFFFF" stroke-miterlimit="10" d="M247.6,152.7l9.1-13.6c0,0-0.1-14.6,15.5-29.7
				c4.4-4.2,10.5,23.4-7.2,35.3l-9.1,13.6L247.6,152.7z"/>
			<path fill="none" stroke="#FFFFFF" stroke-miterlimit="10" d="M112.6,253.7c0,0-3.5-48.6,33.8-46.8s63.9,7.2,64.9-29.8l52.1,0.1
				c0,0,0,30.3,0,41.3c0,17.7-8.8,34.4-47.7,35.3c-54.6,1.3-74.5,0.3-74.5,0.3s-28.7-2.3-28.7,15.3L112.6,253.7z"/>
			<path fill="none" stroke="#FFFFFF" stroke-miterlimit="10" d="M119.3,257.9c0,0,0.1-38.1,21.4-37.5c86.5,2.7,77-14,79.4-43.3"/>
			<path fill="none" stroke="#FFFFFF" stroke-miterlimit="10" d="M228.5,152.7l-9.1-13.6c0,0,0.1-14.6-15.5-29.7
				c-4.4-4.2-10.5,23.4,7.2,35.3l9.1,13.6L228.5,152.7z"/>
			<path fill="none" stroke="#FFFFFF" stroke-miterlimit="10" d="M124.7,181.5c10.5-8.4,25.2-10.8,38.4-5.1
				c13.2,5.8,21.5,18.2,22.4,31.7"/>
			<path fill="none" stroke="#FFFFFF" stroke-miterlimit="10" d="M134.6,189.8c6.8-4.4,15.5-5.4,23.5-1.9
				c7.7,3.4,12.9,10.1,14.4,17.8c0.1,0.2,0.1,0.5,0.1,0.7"/>
			<path fill="none" stroke="#FFFFFF" stroke-miterlimit="10" d="M139.9,198.3c4.1-2.7,9.4-3.3,14.1-1.2c4.7,2,7.8,6.2,8.7,10.9"/>
			<line fill="none" stroke="#FFFFFF" stroke-width="0.5" stroke-miterlimit="10" x1="262.2" y1="121.8" x2="268.7" y2="126.3"/>
			<line fill="none" stroke="#FFFFFF" stroke-width="0.5" stroke-miterlimit="10" x1="265.2" y1="117.4" x2="270.7" y2="121.1"/>
			<line fill="none" stroke="#FFFFFF" stroke-width="0.5" stroke-miterlimit="10" x1="268.7" y1="112.8" x2="272.8" y2="115.6"/>
			<line fill="none" stroke="#FFFFFF" stroke-width="0.5" stroke-miterlimit="10" x1="260.2" y1="127.2" x2="266.8" y2="131.7"/>
			<g>
				<line fill="none" stroke="#FFFFFF" stroke-width="0.5" stroke-miterlimit="10" x1="213.8" y1="121.8" x2="207.3" y2="126.3"/>
				<line fill="none" stroke="#FFFFFF" stroke-width="0.5" stroke-miterlimit="10" x1="210.8" y1="117.4" x2="205.2" y2="121.1"/>
				<line fill="none" stroke="#FFFFFF" stroke-width="0.5" stroke-miterlimit="10" x1="207.3" y1="112.8" x2="203.2" y2="115.6"/>
				<line fill="none" stroke="#FFFFFF" stroke-width="0.5" stroke-miterlimit="10" x1="215.8" y1="127.2" x2="209.2" y2="131.7"/>
			</g>
		</g>
		<circle fill="none" stroke="#FFFFFF" stroke-width="0.75" stroke-miterlimit="10" cx="200" cy="198.4" r="163.4"/>
		<circle fill="none" stroke="#FFFFFF" stroke-width="0.75" stroke-miterlimit="10" cx="200" cy="198.4" r="170.6"/>
		<circle fill="none" stroke="#FFFFFF" stroke-width="0.75" stroke-miterlimit="10" cx="200" cy="198.4" r="163.4"/>
		<circle fill="#FFFFFF" stroke="#FFFFFF" stroke-miterlimit="10" cx="199.5" cy="45" r="2.5"/>
		<circle fill="#FFFFFF" stroke="#FFFFFF" stroke-miterlimit="10" cx="188.8" cy="45.4" r="2.5"/>
		<circle fill="#FFFFFF" stroke="#FFFFFF" stroke-miterlimit="10" cx="178.1" cy="46.6" r="2.5"/>
		<circle fill="#FFFFFF" stroke="#FFFFFF" stroke-miterlimit="10" cx="167.6" cy="48.5" r="2.5"/>
		<circle fill="#FFFFFF" stroke="#FFFFFF" stroke-miterlimit="10" cx="157.2" cy="51.1" r="2.5"/>
		<circle fill="#FFFFFF" stroke="#FFFFFF" stroke-miterlimit="10" cx="147" cy="54.4" r="2.5"/>
		<circle fill="#FFFFFF" stroke="#FFFFFF" stroke-miterlimit="10" cx="137.1" cy="58.5" r="2.5"/>
		<circle fill="#FFFFFF" stroke="#FFFFFF" stroke-miterlimit="10" cx="127.5" cy="63.2" r="2.5"/>
		<circle fill="#FFFFFF" stroke="#FFFFFF" stroke-miterlimit="10" cx="118.3" cy="68.6" r="2.5"/>
		<circle fill="#FFFFFF" stroke="#FFFFFF" stroke-miterlimit="10" cx="109.4" cy="74.6" r="2.5"/>
		<circle fill="#FFFFFF" stroke="#FFFFFF" stroke-miterlimit="10" cx="101" cy="81.2" r="2.5"/>
		<circle fill="#FFFFFF" stroke="#FFFFFF" stroke-miterlimit="10" cx="93.1" cy="88.4" r="2.5"/>
		<circle fill="#FFFFFF" stroke="#FFFFFF" stroke-miterlimit="10" cx="85.7" cy="96.2" r="2.5"/>
		<circle fill="#FFFFFF" stroke="#FFFFFF" stroke-miterlimit="10" cx="78.8" cy="104.4" r="2.5"/>
		<circle fill="#FFFFFF" stroke="#FFFFFF" stroke-miterlimit="10" cx="72.6" cy="113.1" r="2.5"/>
		<circle fill="#FFFFFF" stroke="#FFFFFF" stroke-miterlimit="10" cx="66.9" cy="122.2" r="2.5"/>
		<circle fill="#FFFFFF" stroke="#FFFFFF" stroke-miterlimit="10" cx="61.9" cy="131.7" r="2.5"/>
		<circle fill="#FFFFFF" stroke="#FFFFFF" stroke-miterlimit="10" cx="57.6" cy="141.5" r="2.5"/>
		<circle fill="#FFFFFF" stroke="#FFFFFF" stroke-miterlimit="10" cx="54" cy="151.5" r="2.5"/>
		<circle fill="#FFFFFF" stroke="#FFFFFF" stroke-miterlimit="10" cx="51.1" cy="161.8" r="2.5"/>
		<circle fill="#FFFFFF" stroke="#FFFFFF" stroke-miterlimit="10" cx="48.9" cy="172.3" r="2.5"/>
		<circle fill="#FFFFFF" stroke="#FFFFFF" stroke-miterlimit="10" cx="47.4" cy="182.9" r="2.5"/>
		<circle fill="#FFFFFF" stroke="#FFFFFF" stroke-miterlimit="10" cx="46.7" cy="193.6" r="2.5"/>
		<circle fill="#FFFFFF" stroke="#FFFFFF" stroke-miterlimit="10" cx="46.8" cy="204.3" r="2.5"/>
		<circle fill="#FFFFFF" stroke="#FFFFFF" stroke-miterlimit="10" cx="47.6" cy="215" r="2.5"/>
		<circle fill="#FFFFFF" stroke="#FFFFFF" stroke-miterlimit="10" cx="49.1" cy="225.6" r="2.5"/>
		<circle fill="#FFFFFF" stroke="#FFFFFF" stroke-miterlimit="10" cx="51.4" cy="236" r="2.5"/>
		<circle fill="#FFFFFF" stroke="#FFFFFF" stroke-miterlimit="10" cx="54.3" cy="246.3" r="2.5"/>
		<circle fill="#FFFFFF" stroke="#FFFFFF" stroke-miterlimit="10" cx="58" cy="256.4" r="2.5"/>
		<circle fill="#FFFFFF" stroke="#FFFFFF" stroke-miterlimit="10" cx="62.4" cy="266.1" r="2.5"/>
		<circle fill="#FFFFFF" stroke="#FFFFFF" stroke-miterlimit="10" cx="67.5" cy="275.6" r="2.5"/>
		<circle fill="#FFFFFF" stroke="#FFFFFF" stroke-miterlimit="10" cx="73.2" cy="284.6" r="2.5"/>
		<circle fill="#FFFFFF" stroke="#FFFFFF" stroke-miterlimit="10" cx="79.5" cy="293.3" r="2.5"/>
		<circle fill="#FFFFFF" stroke="#FFFFFF" stroke-miterlimit="10" cx="86.4" cy="301.4" r="2.5"/>
		<circle fill="#FFFFFF" stroke="#FFFFFF" stroke-miterlimit="10" cx="93.9" cy="309.1" r="2.5"/>
		<circle fill="#FFFFFF" stroke="#FFFFFF" stroke-miterlimit="10" cx="101.9" cy="316.2" r="2.5"/>
		<circle fill="#FFFFFF" stroke="#FFFFFF" stroke-miterlimit="10" cx="110.4" cy="322.8" r="2.5"/>
		<circle fill="#FFFFFF" stroke="#FFFFFF" stroke-miterlimit="10" cx="119.3" cy="328.8" r="2.5"/>
		<circle fill="#FFFFFF" stroke="#FFFFFF" stroke-miterlimit="10" cx="128.5" cy="334.1" r="2.5"/>
		<circle fill="#FFFFFF" stroke="#FFFFFF" stroke-miterlimit="10" cx="138.2" cy="338.7" r="2.5"/>
		<circle fill="#FFFFFF" stroke="#FFFFFF" stroke-miterlimit="10" cx="148.1" cy="342.7" r="2.5"/>
		<circle fill="#FFFFFF" stroke="#FFFFFF" stroke-miterlimit="10" cx="158.3" cy="346" r="2.5"/>
		<circle fill="#FFFFFF" stroke="#FFFFFF" stroke-miterlimit="10" cx="168.7" cy="348.5" r="2.5"/>
		<circle fill="#FFFFFF" stroke="#FFFFFF" stroke-miterlimit="10" cx="179.3" cy="350.3" r="2.5"/>
		<circle fill="#FFFFFF" stroke="#FFFFFF" stroke-miterlimit="10" cx="189.9" cy="351.4" r="2.5"/>
		<circle fill="#FFFFFF" stroke="#FFFFFF" stroke-miterlimit="10" cx="200.6" cy="351.8" r="2.5"/>
		<circle fill="#FFFFFF" stroke="#FFFFFF" stroke-miterlimit="10" cx="211.3" cy="351.3" r="2.5"/>
		<circle fill="#FFFFFF" stroke="#FFFFFF" stroke-miterlimit="10" cx="222" cy="350.2" r="2.5"/>
		<circle fill="#FFFFFF" stroke="#FFFFFF" stroke-miterlimit="10" cx="232.5" cy="348.3" r="2.5"/>
		<circle fill="#FFFFFF" stroke="#FFFFFF" stroke-miterlimit="10" cx="242.9" cy="345.7" r="2.5"/>
		<circle fill="#FFFFFF" stroke="#FFFFFF" stroke-miterlimit="10" cx="253" cy="342.3" r="2.5"/>
		<circle fill="#FFFFFF" stroke="#FFFFFF" stroke-miterlimit="10" cx="263" cy="338.3" r="2.5"/>
		<circle fill="#FFFFFF" stroke="#FFFFFF" stroke-miterlimit="10" cx="272.6" cy="333.5" r="2.5"/>
		<circle fill="#FFFFFF" stroke="#FFFFFF" stroke-miterlimit="10" cx="281.8" cy="328.1" r="2.5"/>
		<circle fill="#FFFFFF" stroke="#FFFFFF" stroke-miterlimit="10" cx="290.7" cy="322.1" r="2.5"/>
		<circle fill="#FFFFFF" stroke="#FFFFFF" stroke-miterlimit="10" cx="299.1" cy="315.5" r="2.5"/>
		<circle fill="#FFFFFF" stroke="#FFFFFF" stroke-miterlimit="10" cx="307" cy="308.3" r="2.5"/>
		<circle fill="#FFFFFF" stroke="#FFFFFF" stroke-miterlimit="10" cx="314.4" cy="300.6" r="2.5"/>
		<circle fill="#FFFFFF" stroke="#FFFFFF" stroke-miterlimit="10" cx="321.3" cy="292.3" r="2.5"/>
		<circle fill="#FFFFFF" stroke="#FFFFFF" stroke-miterlimit="10" cx="327.5" cy="283.7" r="2.5"/>
		<circle fill="#FFFFFF" stroke="#FFFFFF" stroke-miterlimit="10" cx="333.2" cy="274.6" r="2.5"/>
		<circle fill="#FFFFFF" stroke="#FFFFFF" stroke-miterlimit="10" cx="338.2" cy="265.1" r="2.5"/>
		<circle fill="#FFFFFF" stroke="#FFFFFF" stroke-miterlimit="10" cx="342.5" cy="255.3" r="2.5"/>
		<circle fill="#FFFFFF" stroke="#FFFFFF" stroke-miterlimit="10" cx="346.1" cy="245.2" r="2.5"/>
		<circle fill="#FFFFFF" stroke="#FFFFFF" stroke-miterlimit="10" cx="349" cy="234.9" r="2.5"/>
		<circle fill="#FFFFFF" stroke="#FFFFFF" stroke-miterlimit="10" cx="351.2" cy="224.4" r="2.5"/>
		<circle fill="#FFFFFF" stroke="#FFFFFF" stroke-miterlimit="10" cx="352.6" cy="213.8" r="2.5"/>
		<circle fill="#FFFFFF" stroke="#FFFFFF" stroke-miterlimit="10" cx="353.3" cy="203.1" r="2.5"/>
		<circle fill="#FFFFFF" stroke="#FFFFFF" stroke-miterlimit="10" cx="353.3" cy="192.4" r="2.5"/>
		<circle fill="#FFFFFF" stroke="#FFFFFF" stroke-miterlimit="10" cx="352.5" cy="181.8" r="2.5"/>
		<circle fill="#FFFFFF" stroke="#FFFFFF" stroke-miterlimit="10" cx="351" cy="171.2" r="2.5"/>
		<circle fill="#FFFFFF" stroke="#FFFFFF" stroke-miterlimit="10" cx="348.7" cy="160.7" r="2.5"/>
		<circle fill="#FFFFFF" stroke="#FFFFFF" stroke-miterlimit="10" cx="345.7" cy="150.4" r="2.5"/>
		<circle fill="#FFFFFF" stroke="#FFFFFF" stroke-miterlimit="10" cx="342" cy="140.4" r="2.5"/>
		<circle fill="#FFFFFF" stroke="#FFFFFF" stroke-miterlimit="10" cx="337.6" cy="130.6" r="2.5"/>
		<circle fill="#FFFFFF" stroke="#FFFFFF" stroke-miterlimit="10" cx="332.6" cy="121.2" r="2.5"/>
		<circle fill="#FFFFFF" stroke="#FFFFFF" stroke-miterlimit="10" cx="326.9" cy="112.1" r="2.5"/>
		<circle fill="#FFFFFF" stroke="#FFFFFF" stroke-miterlimit="10" cx="320.5" cy="103.5" r="2.5"/>
		<circle fill="#FFFFFF" stroke="#FFFFFF" stroke-miterlimit="10" cx="313.6" cy="95.3" r="2.5"/>
		<circle fill="#FFFFFF" stroke="#FFFFFF" stroke-miterlimit="10" cx="306.2" cy="87.6" r="2.5"/>
		<circle fill="#FFFFFF" stroke="#FFFFFF" stroke-miterlimit="10" cx="298.2" cy="80.5" r="2.5"/>
		<circle fill="#FFFFFF" stroke="#FFFFFF" stroke-miterlimit="10" cx="289.7" cy="73.9" r="2.5"/>
		<circle fill="#FFFFFF" stroke="#FFFFFF" stroke-miterlimit="10" cx="280.8" cy="68" r="2.5"/>
		<circle fill="#FFFFFF" stroke="#FFFFFF" stroke-miterlimit="10" cx="271.5" cy="62.7" r="2.5"/>
		<circle fill="#FFFFFF" stroke="#FFFFFF" stroke-miterlimit="10" cx="261.9" cy="58" r="2.5"/>
		<circle fill="#FFFFFF" stroke="#FFFFFF" stroke-miterlimit="10" cx="252" cy="54" r="2.5"/>
		<circle fill="#FFFFFF" stroke="#FFFFFF" stroke-miterlimit="10" cx="241.8" cy="50.8" r="2.5"/>
		<circle fill="#FFFFFF" stroke="#FFFFFF" stroke-miterlimit="10" cx="231.4" cy="48.2" r="2.5"/>
		<circle fill="#FFFFFF" stroke="#FFFFFF" stroke-miterlimit="10" cx="220.8" cy="46.4" r="2.5"/>
		<circle fill="#FFFFFF" stroke="#FFFFFF" stroke-miterlimit="10" cx="210.2" cy="45.3" r="2.5"/>
		<line fill="none" stroke="#FFFFFF" stroke-miterlimit="10" x1="199.5" y1="0" x2="199.5" y2="19.1"/>
		<line fill="none" stroke="#FFFFFF" stroke-miterlimit="10" x1="189" y1="0" x2="190" y2="19.3"/>
		<line fill="none" stroke="#FFFFFF" stroke-miterlimit="10" x1="178.6" y1="0.8" x2="180.6" y2="20.1"/>
		<line fill="none" stroke="#FFFFFF" stroke-miterlimit="10" x1="168.2" y1="2.2" x2="171.3" y2="21.3"/>
		<line fill="none" stroke="#FFFFFF" stroke-miterlimit="10" x1="158" y1="4.1" x2="162" y2="23"/>
		<line fill="none" stroke="#FFFFFF" stroke-miterlimit="10" x1="147.8" y1="6.6" x2="152.8" y2="25.2"/>
		<line fill="none" stroke="#FFFFFF" stroke-miterlimit="10" x1="137.8" y1="9.5" x2="143.8" y2="27.9"/>
		<line fill="none" stroke="#FFFFFF" stroke-miterlimit="10" x1="127.9" y1="13" x2="134.9" y2="31.1"/>
		<line fill="none" stroke="#FFFFFF" stroke-miterlimit="10" x1="118.3" y1="17.1" x2="126.1" y2="34.7"/>
		<line fill="none" stroke="#FFFFFF" stroke-miterlimit="10" x1="108.9" y1="21.6" x2="117.6" y2="38.8"/>
		<line fill="none" stroke="#FFFFFF" stroke-miterlimit="10" x1="99.7" y1="26.6" x2="109.3" y2="43.3"/>
		<line fill="none" stroke="#FFFFFF" stroke-miterlimit="10" x1="90.8" y1="32" x2="101.3" y2="48.2"/>
		<line fill="none" stroke="#FFFFFF" stroke-miterlimit="10" x1="82.2" y1="37.9" x2="93.5" y2="53.6"/>
		<line fill="none" stroke="#FFFFFF" stroke-miterlimit="10" x1="73.9" y1="44.3" x2="86" y2="59.3"/>
		<line fill="none" stroke="#FFFFFF" stroke-miterlimit="10" x1="65.9" y1="51.1" x2="78.9" y2="65.5"/>
		<line fill="none" stroke="#FFFFFF" stroke-miterlimit="10" x1="58.4" y1="58.3" x2="72" y2="72"/>
		<line fill="none" stroke="#FFFFFF" stroke-miterlimit="10" x1="51.2" y1="65.9" x2="65.5" y2="78.8"/>
		<line fill="none" stroke="#FFFFFF" stroke-miterlimit="10" x1="44.4" y1="73.8" x2="59.4" y2="86"/>
		<line fill="none" stroke="#FFFFFF" stroke-miterlimit="10" x1="38" y1="82.1" x2="53.7" y2="93.5"/>
		<line fill="none" stroke="#FFFFFF" stroke-miterlimit="10" x1="32.1" y1="90.8" x2="48.3" y2="101.3"/>
		<line fill="none" stroke="#FFFFFF" stroke-miterlimit="10" x1="26.7" y1="99.7" x2="43.4" y2="109.3"/>
		<line fill="none" stroke="#FFFFFF" stroke-miterlimit="10" x1="21.7" y1="108.9" x2="38.9" y2="117.6"/>
		<line fill="none" stroke="#FFFFFF" stroke-miterlimit="10" x1="17.2" y1="118.3" x2="34.9" y2="126.2"/>
		<line fill="none" stroke="#FFFFFF" stroke-miterlimit="10" x1="13.2" y1="127.9" x2="31.3" y2="134.9"/>
		<line fill="none" stroke="#FFFFFF" stroke-miterlimit="10" x1="9.7" y1="137.8" x2="28.1" y2="143.8"/>
		<line fill="none" stroke="#FFFFFF" stroke-miterlimit="10" x1="6.8" y1="147.8" x2="25.4" y2="152.8"/>
		<line fill="none" stroke="#FFFFFF" stroke-miterlimit="10" x1="4.3" y1="158" x2="23.2" y2="162"/>
		<line fill="none" stroke="#FFFFFF" stroke-miterlimit="10" x1="2.4" y1="168.3" x2="21.5" y2="171.3"/>
		<line fill="none" stroke="#FFFFFF" stroke-miterlimit="10" x1="1.1" y1="178.6" x2="20.3" y2="180.6"/>
		<line fill="none" stroke="#FFFFFF" stroke-miterlimit="10" x1="0.3" y1="189" x2="19.6" y2="190.1"/>
		<line fill="none" stroke="#FFFFFF" stroke-miterlimit="10" x1="0" y1="199.5" x2="19.3" y2="199.5"/>
		<line fill="none" stroke="#FFFFFF" stroke-miterlimit="10" x1="0.3" y1="209.9" x2="19.6" y2="208.9"/>
		<line fill="none" stroke="#FFFFFF" stroke-miterlimit="10" x1="1.1" y1="220.4" x2="20.3" y2="218.3"/>
		<line fill="none" stroke="#FFFFFF" stroke-miterlimit="10" x1="2.5" y1="230.7" x2="21.6" y2="227.7"/>
		<line fill="none" stroke="#FFFFFF" stroke-miterlimit="10" x1="4.4" y1="241" x2="23.3" y2="237"/>
		<line fill="none" stroke="#FFFFFF" stroke-miterlimit="10" x1="6.8" y1="251.1" x2="25.5" y2="246.1"/>
		<line fill="none" stroke="#FFFFFF" stroke-miterlimit="10" x1="9.8" y1="261.2" x2="28.2" y2="255.2"/>
		<line fill="none" stroke="#FFFFFF" stroke-miterlimit="10" x1="13.3" y1="271" x2="31.4" y2="264.1"/>
		<line fill="none" stroke="#FFFFFF" stroke-miterlimit="10" x1="17.3" y1="280.7" x2="35" y2="272.8"/>
		<line fill="none" stroke="#FFFFFF" stroke-miterlimit="10" x1="21.8" y1="290.1" x2="39.1" y2="281.3"/>
		<line fill="none" stroke="#FFFFFF" stroke-miterlimit="10" x1="26.8" y1="299.3" x2="43.6" y2="289.6"/>
		<line fill="none" stroke="#FFFFFF" stroke-miterlimit="10" x1="32.3" y1="308.2" x2="48.5" y2="297.6"/>
		<line fill="none" stroke="#FFFFFF" stroke-miterlimit="10" x1="38.2" y1="316.8" x2="53.9" y2="305.4"/>
		<line fill="none" stroke="#FFFFFF" stroke-miterlimit="10" x1="44.6" y1="325.1" x2="59.6" y2="312.9"/>
		<line fill="none" stroke="#FFFFFF" stroke-miterlimit="10" x1="51.4" y1="333" x2="65.7" y2="320.1"/>
		<line fill="none" stroke="#FFFFFF" stroke-miterlimit="10" x1="58.6" y1="340.6" x2="72.2" y2="326.9"/>
		<line fill="none" stroke="#FFFFFF" stroke-miterlimit="10" x1="66.2" y1="347.8" x2="79.1" y2="333.4"/>
		<line fill="none" stroke="#FFFFFF" stroke-miterlimit="10" x1="74.1" y1="354.6" x2="86.3" y2="339.5"/>
		<line fill="none" stroke="#FFFFFF" stroke-miterlimit="10" x1="82.4" y1="360.9" x2="93.8" y2="345.3"/>
		<line fill="none" stroke="#FFFFFF" stroke-miterlimit="10" x1="91" y1="366.8" x2="101.5" y2="350.6"/>
		<line fill="none" stroke="#FFFFFF" stroke-miterlimit="10" x1="99.9" y1="372.3" x2="109.6" y2="355.5"/>
		<line fill="none" stroke="#FFFFFF" stroke-miterlimit="10" x1="109.1" y1="377.3" x2="117.9" y2="360"/>
		<line fill="none" stroke="#FFFFFF" stroke-miterlimit="10" x1="118.6" y1="381.8" x2="126.4" y2="364.1"/>
		<line fill="none" stroke="#FFFFFF" stroke-miterlimit="10" x1="128.2" y1="385.7" x2="135.1" y2="367.7"/>
		<line fill="none" stroke="#FFFFFF" stroke-miterlimit="10" x1="138.1" y1="389.2" x2="144" y2="370.8"/>
		<line fill="none" stroke="#FFFFFF" stroke-miterlimit="10" x1="148.1" y1="392.2" x2="153.1" y2="373.5"/>
		<line fill="none" stroke="#FFFFFF" stroke-miterlimit="10" x1="158.3" y1="394.6" x2="162.3" y2="375.7"/>
		<line fill="none" stroke="#FFFFFF" stroke-miterlimit="10" x1="168.5" y1="396.5" x2="171.6" y2="377.4"/>
		<line fill="none" stroke="#FFFFFF" stroke-miterlimit="10" x1="178.9" y1="397.9" x2="180.9" y2="378.6"/>
		<line fill="none" stroke="#FFFFFF" stroke-miterlimit="10" x1="189.3" y1="398.7" x2="190.3" y2="379.4"/>
		<line fill="none" stroke="#FFFFFF" stroke-miterlimit="10" x1="199.8" y1="398.7" x2="199.8" y2="379.6"/>
		<line fill="none" stroke="#FFFFFF" stroke-miterlimit="10" x1="210.2" y1="398.7" x2="209.2" y2="379.4"/>
		<line fill="none" stroke="#FFFFFF" stroke-miterlimit="10" x1="220.6" y1="397.8" x2="218.6" y2="378.6"/>
		<line fill="none" stroke="#FFFFFF" stroke-miterlimit="10" x1="231" y1="396.5" x2="228" y2="377.4"/>
		<line fill="none" stroke="#FFFFFF" stroke-miterlimit="10" x1="241.3" y1="394.6" x2="237.2" y2="375.6"/>
		<line fill="none" stroke="#FFFFFF" stroke-miterlimit="10" x1="251.4" y1="392.1" x2="246.4" y2="373.4"/>
		<line fill="none" stroke="#FFFFFF" stroke-miterlimit="10" x1="261.4" y1="389.1" x2="255.5" y2="370.7"/>
		<line fill="none" stroke="#FFFFFF" stroke-miterlimit="10" x1="271.3" y1="385.6" x2="264.3" y2="367.6"/>
		<line fill="none" stroke="#FFFFFF" stroke-miterlimit="10" x1="280.9" y1="381.6" x2="273.1" y2="364"/>
		<line fill="none" stroke="#FFFFFF" stroke-miterlimit="10" x1="290.4" y1="377.1" x2="281.6" y2="359.9"/>
		<line fill="none" stroke="#FFFFFF" stroke-miterlimit="10" x1="299.5" y1="372.1" x2="289.9" y2="355.4"/>
		<line fill="none" stroke="#FFFFFF" stroke-miterlimit="10" x1="308.4" y1="366.7" x2="297.9" y2="350.4"/>
		<line fill="none" stroke="#FFFFFF" stroke-miterlimit="10" x1="317.1" y1="360.7" x2="305.7" y2="345.1"/>
		<line fill="none" stroke="#FFFFFF" stroke-miterlimit="10" x1="325.3" y1="354.4" x2="313.2" y2="339.3"/>
		<line fill="none" stroke="#FFFFFF" stroke-miterlimit="10" x1="333.3" y1="347.6" x2="320.3" y2="333.2"/>
		<line fill="none" stroke="#FFFFFF" stroke-miterlimit="10" x1="340.9" y1="340.4" x2="327.2" y2="326.7"/>
		<line fill="none" stroke="#FFFFFF" stroke-miterlimit="10" x1="348" y1="332.8" x2="333.7" y2="319.9"/>
		<line fill="none" stroke="#FFFFFF" stroke-miterlimit="10" x1="354.8" y1="324.8" x2="339.8" y2="312.7"/>
		<line fill="none" stroke="#FFFFFF" stroke-miterlimit="10" x1="361.2" y1="316.5" x2="345.5" y2="305.2"/>
		<line fill="none" stroke="#FFFFFF" stroke-miterlimit="10" x1="367.1" y1="307.9" x2="350.9" y2="297.4"/>
		<line fill="none" stroke="#FFFFFF" stroke-miterlimit="10" x1="372.5" y1="299" x2="355.8" y2="289.3"/>
		<line fill="none" stroke="#FFFFFF" stroke-miterlimit="10" x1="377.5" y1="289.8" x2="360.3" y2="281"/>
		<line fill="none" stroke="#FFFFFF" stroke-miterlimit="10" x1="382" y1="280.4" x2="364.4" y2="272.5"/>
		<line fill="none" stroke="#FFFFFF" stroke-miterlimit="10" x1="386" y1="270.7" x2="368" y2="263.8"/>
		<line fill="none" stroke="#FFFFFF" stroke-miterlimit="10" x1="389.5" y1="260.9" x2="371.1" y2="254.9"/>
		<line fill="none" stroke="#FFFFFF" stroke-miterlimit="10" x1="392.4" y1="250.9" x2="373.8" y2="245.9"/>
		<line fill="none" stroke="#FFFFFF" stroke-miterlimit="10" x1="394.9" y1="240.7" x2="376" y2="236.7"/>
		<line fill="none" stroke="#FFFFFF" stroke-miterlimit="10" x1="396.8" y1="230.4" x2="377.7" y2="227.4"/>
		<line fill="none" stroke="#FFFFFF" stroke-miterlimit="10" x1="398.1" y1="220.1" x2="378.9" y2="218"/>
		<line fill="none" stroke="#FFFFFF" stroke-miterlimit="10" x1="398.9" y1="209.6" x2="379.6" y2="208.6"/>
		<line fill="none" stroke="#FFFFFF" stroke-miterlimit="10" x1="399.2" y1="199.2" x2="379.9" y2="199.2"/>
		<line fill="none" stroke="#FFFFFF" stroke-miterlimit="10" x1="398.9" y1="188.7" x2="379.6" y2="189.8"/>
		<line fill="none" stroke="#FFFFFF" stroke-miterlimit="10" x1="398.1" y1="178.3" x2="378.9" y2="180.3"/>
		<line fill="none" stroke="#FFFFFF" stroke-miterlimit="10" x1="396.7" y1="168" x2="377.6" y2="171"/>
		<line fill="none" stroke="#FFFFFF" stroke-miterlimit="10" x1="394.8" y1="157.7" x2="375.9" y2="161.7"/>
		<line fill="none" stroke="#FFFFFF" stroke-miterlimit="10" x1="392.4" y1="147.5" x2="373.7" y2="152.5"/>
		<line fill="none" stroke="#FFFFFF" stroke-miterlimit="10" x1="389.4" y1="137.5" x2="371" y2="143.5"/>
		<line fill="none" stroke="#FFFFFF" stroke-miterlimit="10" x1="385.9" y1="127.7" x2="367.9" y2="134.6"/>
		<line fill="none" stroke="#FFFFFF" stroke-miterlimit="10" x1="381.9" y1="118" x2="364.2" y2="125.9"/>
		<line fill="none" stroke="#FFFFFF" stroke-miterlimit="10" x1="377.4" y1="108.6" x2="360.2" y2="117.4"/>
		<line fill="none" stroke="#FFFFFF" stroke-miterlimit="10" x1="372.4" y1="99.4" x2="355.7" y2="109.1"/>
		<line fill="none" stroke="#FFFFFF" stroke-miterlimit="10" x1="366.9" y1="90.5" x2="350.7" y2="101"/>
		<line fill="none" stroke="#FFFFFF" stroke-miterlimit="10" x1="361" y1="81.9" x2="345.4" y2="93.3"/>
		<line fill="none" stroke="#FFFFFF" stroke-miterlimit="10" x1="354.6" y1="73.6" x2="339.6" y2="85.8"/>
		<line fill="none" stroke="#FFFFFF" stroke-miterlimit="10" x1="347.8" y1="65.7" x2="333.5" y2="78.6"/>
		<line fill="none" stroke="#FFFFFF" stroke-miterlimit="10" x1="340.6" y1="58.1" x2="327" y2="71.8"/>
		<line fill="none" stroke="#FFFFFF" stroke-miterlimit="10" x1="333.1" y1="50.9" x2="320.1" y2="65.3"/>
		<line fill="none" stroke="#FFFFFF" stroke-miterlimit="10" x1="325.1" y1="44.1" x2="312.9" y2="59.1"/>
		<line fill="none" stroke="#FFFFFF" stroke-miterlimit="10" x1="316.8" y1="37.8" x2="305.4" y2="53.4"/>
		<line fill="none" stroke="#FFFFFF" stroke-miterlimit="10" x1="308.2" y1="31.9" x2="297.7" y2="48.1"/>
		<line fill="none" stroke="#FFFFFF" stroke-miterlimit="10" x1="299.3" y1="26.4" x2="289.6" y2="43.1"/>
		<line fill="none" stroke="#FFFFFF" stroke-miterlimit="10" x1="290.1" y1="21.4" x2="281.3" y2="38.6"/>
		<line fill="none" stroke="#FFFFFF" stroke-miterlimit="10" x1="280.7" y1="16.9" x2="272.8" y2="34.6"/>
		<line fill="none" stroke="#FFFFFF" stroke-miterlimit="10" x1="271" y1="12.9" x2="264.1" y2="31"/>
		<line fill="none" stroke="#FFFFFF" stroke-miterlimit="10" x1="261.1" y1="9.5" x2="255.2" y2="27.8"/>
		<line fill="none" stroke="#FFFFFF" stroke-miterlimit="10" x1="251.1" y1="6.5" x2="246.1" y2="25.2"/>
		<line fill="none" stroke="#FFFFFF" stroke-miterlimit="10" x1="241" y1="4.1" x2="236.9" y2="23"/>
		<line fill="none" stroke="#FFFFFF" stroke-miterlimit="10" x1="230.7" y1="2.2" x2="227.7" y2="21.3"/>
		<line fill="none" stroke="#FFFFFF" stroke-miterlimit="10" x1="220.3" y1="0.8" x2="218.3" y2="20"/>
		<line fill="none" stroke="#FFFFFF" stroke-miterlimit="10" x1="209.9" y1="0" x2="208.9" y2="19.3"/>
	</g>
</g>
</svg>
