<?xml version="1.0" encoding="UTF-8" standalone="no"?>
<!-- Generator: Adobe Illustrator 16.0.0, SVG Export Plug-In . SVG Version: 6.00 Build 0)  -->
<!DOCTYPE svg  PUBLIC '-//W3C//DTD SVG 1.1//EN'  'http://www.w3.org/Graphics/SVG/1.1/DTD/svg11.dtd'>
<svg id="Capa_1" style="enable-background:new 0 0 438.536 438.536" xmlns="http://www.w3.org/2000/svg" xml:space="preserve" height="438.54px" viewBox="0 0 438.536 438.536" width="438.54px" version="1.1" y="0px" x="0px" xmlns:xlink="http://www.w3.org/1999/xlink">
	<path d="m414.41 24.123c-16.08-16.081-35.45-24.123-58.09-24.123h-274.09c-22.65 0-42.02 8.042-58.104 24.123-16.081 16.084-24.123 35.453-24.123 58.102v274.08c0 22.647 8.042 42.018 24.123 58.102 16.084 16.084 35.454 24.126 58.102 24.126h274.08c22.648 0 42.018-8.042 58.095-24.126 16.084-16.084 24.126-35.454 24.126-58.102v-274.08c0-22.644-8.04-42.013-24.12-58.097zm-232.83 237.97c-11.803 11.804-26.075 17.706-42.827 17.706-16.75 0-31.024-5.902-42.825-17.706-11.799-11.8-17.701-26.073-17.701-42.826 0-16.755 5.898-31.027 17.701-42.827 11.798-11.801 26.075-17.703 42.825-17.703 16.751 0 31.023 5.902 42.827 17.703 11.798 11.799 17.699 26.072 17.699 42.827 0 16.75-5.9 31.03-17.7 42.83zm161.02 0c-11.793 11.804-26.07 17.706-42.825 17.706-16.748 0-31.024-5.902-42.831-17.706-11.793-11.8-17.699-26.073-17.699-42.826 0-16.755 5.906-31.027 17.699-42.827 11.807-11.801 26.08-17.703 42.831-17.703 16.748 0 31.025 5.902 42.825 17.703 11.8 11.799 17.706 26.072 17.706 42.827 0 16.75-5.91 31.03-17.71 42.83z"/>
</svg>
