<?xml version="1.0" encoding="UTF-8" standalone="no"?>
<!-- Generator: Adobe Illustrator 16.0.0, SVG Export Plug-In . SVG Version: 6.00 Build 0)  -->
<!DOCTYPE svg  PUBLIC '-//W3C//DTD SVG 1.1//EN'  'http://www.w3.org/Graphics/SVG/1.1/DTD/svg11.dtd'>
<svg id="Capa_1" style="enable-background:new 0 0 94 94" xmlns="http://www.w3.org/2000/svg" xml:space="preserve" height="94px" viewBox="0 0 94 94" width="94px" version="1.1" y="0px" x="0px" xmlns:xlink="http://www.w3.org/1999/xlink">
		<path d="m50.661 47.969c-1.13-0.813-2.32-1.541-3.688-1.88-2.083-0.516-3.98-0.22-5.461 1.476-1.148 1.316-1.696 2.873-1.692 4.728 0.011 0.168 0.027 0.442 0.052 0.716 0.224 2.58 1.947 4.52 4.443 4.977 1.373 0.252 2.708 0.068 4.003-0.436 2.764-1.076 4.869-3.014 6.793-5.189 0.142-0.159 0.072-0.237-0.039-0.354-1.379-1.446-2.784-2.864-4.411-4.038z"/>
		<path d="m72.777 45.918c-1.742 0.231-3.185 1.094-4.541 2.134-1.512 1.159-2.777 2.575-4.084 3.95-0.176 0.186-0.096 0.281 0.031 0.425 0.916 1.027 1.863 2.025 2.938 2.892 1.784 1.436 3.715 2.541 6.067 2.759 2.65 0.247 4.797-0.994 5.744-3.396 0.33-0.83 0.467-1.699 0.471-2.714 0.012-0.253-0.03-0.627-0.077-1-0.416-3.333-3.222-5.489-6.549-5.05z"/>
		<path d="m89 0h-84c-2.762 0-5 2.239-5 5v84c0 2.761 2.238 5 5 5h84c2.762 0 5-2.239 5-5v-84c0-2.761-2.238-5-5-5zm-3.678 57.268c-1.885 5.24-6.246 8.229-11.82 8.164-3.395-0.039-6.295-1.354-8.938-3.361-1.729-1.311-3.207-2.881-4.631-4.506-0.238-0.271-0.351-0.332-0.641-0.03-1.456 1.511-2.838 3.098-4.473 4.428-2.066 1.683-4.35 2.947-7.02 3.31-4.726 0.643-8.804-0.603-11.978-4.31-0.718-0.841-1.26-1.798-1.705-2.812-0.057-0.127-0.073-0.28-0.218-0.387-0.622 1.342-1.393 2.578-2.402 3.651-2.548 2.707-5.688 4.119-9.395 4.25-2.679 0.094-5.302-0.247-7.745-1.405-4.092-1.939-6.344-5.169-6.623-9.729-0.02-0.348 0.075-0.436 0.42-0.434 2.201 0.016 4.402 0.016 6.604 0 0.329-0.003 0.422 0.094 0.479 0.418 0.424 2.512 1.772 4.26 4.306 4.889 3.531 0.877 6.775-1.127 7.703-4.762 0.627-2.447 0.356-4.787-1.268-6.826-1.075-1.353-2.537-2.011-4.256-2.132-2.471-0.174-4.491 0.64-5.952 2.691-0.135 0.193-0.294 0.239-0.513 0.239-1.985-0.007-3.968-0.011-5.951 0.004-0.345 0.002-0.416-0.095-0.357-0.423 1.029-5.723 2.051-11.448 3.072-17.174 0.14-0.783 0.283-1.566 0.411-2.351 0.042-0.258 0.141-0.353 0.419-0.353 6.589 0.009 13.177 0.009 19.767 0 0.313 0 0.382 0.103 0.38 0.396-0.014 1.766-0.017 3.533 0.002 5.299 0.003 0.36-0.088 0.458-0.453 0.458-4.722-0.013-9.441-0.004-14.162-0.018-0.393-0.001-0.565 0.064-0.639 0.504-0.416 2.512-0.875 5.017-1.314 7.525-0.019 0.106-0.094 0.251 0.021 0.321 0.128 0.078 0.199-0.077 0.276-0.15 2.161-2.083 4.8-2.719 7.71-2.564 2.8 0.149 5.189 1.2 7.16 3.191 0.823 0.83 1.462 1.792 1.979 2.837 0.055 0.114 0.113 0.227 0.214 0.428 0.557-1.469 1.243-2.75 2.22-3.86 2.141-2.433 4.843-3.744 8.057-4.041 4.528-0.418 8.25 1.331 11.508 4.304 1.352 1.23 2.546 2.612 3.72 4.01 0.25 0.298 0.358 0.324 0.624 0.01 1.512-1.794 3.018-3.597 4.875-5.055 2.146-1.682 4.508-2.896 7.248-3.216 6.773-0.793 12.434 2.895 13.876 9.887 0.608 2.942 0.422 5.851-0.597 8.685z"/>
</svg>
