<?xml version="1.0" encoding="UTF-8" standalone="no"?>
<!-- Generator: Adobe Illustrator 16.0.0, SVG Export Plug-In . SVG Version: 6.00 Build 0)  -->
<!DOCTYPE svg  PUBLIC '-//W3C//DTD SVG 1.1//EN'  'http://www.w3.org/Graphics/SVG/1.1/DTD/svg11.dtd'>
<svg id="Capa_1" style="enable-background:new 0 0 548.165 548.165" xmlns="http://www.w3.org/2000/svg" xml:space="preserve" height="548.16px" viewBox="0 0 548.165 548.165" width="548.16px" version="1.1" y="0px" x="0px" xmlns:xlink="http://www.w3.org/1999/xlink">
		<path d="m526.76 131.04c-14.277-14.274-31.498-21.413-51.675-21.413h-63.953l-14.558-38.826c-3.618-9.325-10.229-17.368-19.846-24.128-9.613-6.757-19.462-10.138-29.551-10.138h-146.17c-10.088 0-19.939 3.381-29.552 10.138-9.613 6.76-16.225 14.803-19.842 24.128l-14.56 38.826h-63.961c-20.179 0-37.401 7.139-51.678 21.413-14.274 14.28-21.411 31.5-21.411 51.68v255.81c0 20.178 7.137 37.404 21.411 51.675 14.277 14.277 31.5 21.416 51.678 21.416h401.99c20.177 0 37.397-7.139 51.675-21.416 14.273-14.271 21.412-31.497 21.412-51.675v-255.8c0-20.18-7.14-37.4-21.41-51.68zm-162.31 269.95c-25.029 25.03-55.147 37.548-90.362 37.548s-65.331-12.518-90.362-37.548c-25.031-25.026-37.544-55.151-37.544-90.358 0-35.218 12.517-65.333 37.544-90.364 25.028-25.031 55.148-37.544 90.362-37.544s65.333 12.516 90.362 37.544c25.03 25.028 37.545 55.146 37.545 90.364-0.01 35.21-12.52 65.33-37.55 90.36z"/>
		<path d="m274.08 228.4c-22.651 0-42.018 8.042-58.102 24.128-16.084 16.084-24.126 35.448-24.126 58.104 0 22.647 8.042 42.014 24.126 58.098 16.084 16.081 35.45 24.123 58.102 24.123 22.648 0 42.017-8.042 58.101-24.123 16.084-16.084 24.127-35.45 24.127-58.098 0-22.655-8.043-42.019-24.127-58.104-16.08-16.08-35.45-24.13-58.1-24.13z"/>
</svg>
