<?xml version="1.0" encoding="utf-8"?>
<!DOCTYPE svg PUBLIC "-//W3C//DTD SVG 1.1//EN" "http://www.w3.org/Graphics/SVG/1.1/DTD/svg11.dtd">
<svg version="1.1" id="Layer_1" xmlns="http://www.w3.org/2000/svg" xmlns:xlink="http://www.w3.org/1999/xlink" x="0px" y="0px"
	 viewBox="0 0 455.6 19.4" enable-background="new 0 0 455.6 19.4" xml:space="preserve">
<g>
	<path fill="#FFFFFF" d="M6.5,2.1H1.2c-0.3,0-0.6-0.3-0.6-0.6c0-0.3,0.3-0.6,0.6-0.6H13c0.3,0,0.6,0.3,0.6,0.6
		c0,0.3-0.3,0.6-0.6,0.6H7.7v15.7c0,0.3-0.3,0.6-0.6,0.6c-0.3,0-0.6-0.3-0.6-0.6V2.1z"/>
	<path fill="#FFFFFF" d="M33.4,10.2h-9v7.5c0,0.3-0.3,0.6-0.6,0.6c-0.3,0-0.6-0.3-0.6-0.6V1.4c0-0.3,0.3-0.6,0.6-0.6
		c0.3,0,0.6,0.3,0.6,0.6V9h9V1.4c0-0.3,0.3-0.6,0.6-0.6c0.3,0,0.6,0.3,0.6,0.6v16.3c0,0.3-0.3,0.6-0.6,0.6c-0.3,0-0.6-0.3-0.6-0.6
		V10.2z"/>
	<path fill="#FFFFFF" d="M45.9,1.4c0-0.3,0.3-0.6,0.6-0.6h0.1h8.9c0.3,0,0.6,0.3,0.6,0.6c0,0.3-0.3,0.6-0.6,0.6h-8.4V9h7.3
		C54.7,9,55,9.3,55,9.6c0,0.3-0.3,0.6-0.6,0.6h-7.3v6.9h8.4c0.3,0,0.6,0.3,0.6,0.6c0,0.3-0.3,0.6-0.6,0.6h-8.9h-0.1h-0.1
		c-0.3,0-0.5-0.3-0.5-0.6V1.4z"/>
	<path fill="#FFFFFF" d="M77.4,15.1c0.2-0.2,0.5-0.3,0.8-0.1c1.3,1,3.5,2.3,5.7,2.2c1.5,0,2.9-0.4,3.8-1.1c1-0.7,1.5-1.6,1.5-2.6
		c0-1-0.5-1.7-1.4-2.4c-0.9-0.6-2.3-1.1-4-1.4h-0.1c-1.6-0.3-3-0.7-4.1-1.5c-1.1-0.7-1.8-1.7-1.8-3c0-1.3,0.7-2.5,1.8-3.3
		c1.1-0.8,2.6-1.3,4.2-1.3c2.3,0,4,1.1,5.4,2c0.2,0.2,0.3,0.5,0.1,0.8c-0.1,0.2-0.5,0.3-0.7,0.1c-1.4-0.9-2.9-1.8-4.8-1.8
		c-1.4,0-2.7,0.4-3.6,1c-0.9,0.6-1.4,1.5-1.4,2.4c0,0.9,0.4,1.5,1.3,2.1c0.9,0.6,2.2,1,3.7,1.3H84c1.7,0.3,3.3,0.8,4.4,1.6
		c1.1,0.7,1.9,1.9,1.9,3.3c0,1.4-0.8,2.6-2,3.5c-1.2,0.8-2.7,1.4-4.5,1.4c-2.7,0-5-1.4-6.4-2.5C77.2,15.6,77.2,15.3,77.4,15.1z"/>
	<path fill="#FFFFFF" d="M99.8,1.4c0-0.3,0.3-0.6,0.6-0.6h0.1h4.9c2.7,0,5,2.2,5,5c0,2.7-2.2,5-5,5l-4.3,0v6.9
		c0,0.3-0.3,0.6-0.6,0.6c-0.3,0-0.6-0.3-0.6-0.6V1.4z M105.4,9.6c2.1,0,3.8-1.7,3.8-3.8c0-2.1-1.7-3.8-3.8-3.8H101v7.6H105.4z"/>
	<path fill="#FFFFFF" d="M120,18.3L120,18.3c-0.4,0-0.6-0.3-0.6-0.6V1.4c0-0.3,0.3-0.6,0.6-0.6c0.3,0,0.6,0.3,0.6,0.6v15.7h8.4
		c0.3,0,0.6,0.3,0.6,0.6c0,0.3-0.3,0.6-0.6,0.6H120z"/>
	<path fill="#FFFFFF" d="M138.4,1.4c0-0.3,0.3-0.6,0.6-0.6h0.1h8.9c0.3,0,0.6,0.3,0.6,0.6c0,0.3-0.3,0.6-0.6,0.6h-8.4V9h7.3
		c0.3,0,0.6,0.3,0.6,0.6c0,0.3-0.3,0.6-0.6,0.6h-7.3v6.9h8.4c0.3,0,0.6,0.3,0.6,0.6c0,0.3-0.3,0.6-0.6,0.6h-8.9H139H139
		c-0.3,0-0.5-0.3-0.5-0.6V1.4z"/>
	<path fill="#FFFFFF" d="M159.5,3.4v14.3c0,0.3-0.3,0.6-0.6,0.6c-0.3,0-0.6-0.3-0.6-0.6v-16c-0.1-0.2,0-0.5,0.2-0.7
		c0.3-0.2,0.7-0.1,0.8,0.1L170,15.9V1.6c0-0.3,0.3-0.6,0.6-0.6c0.4,0,0.6,0.3,0.6,0.6v16.1c0,0.3-0.3,0.6-0.6,0.6
		c-0.2,0-0.3-0.1-0.5-0.2c0,0-0.1-0.1-0.1-0.1L159.5,3.4z"/>
	<path fill="#FFFFFF" d="M181.9,18.3h-0.1c-0.3,0-0.5-0.3-0.5-0.6V1.4c0-0.3,0.3-0.6,0.6-0.6h0.1h3.2c4.8,0,8.7,3.9,8.7,8.8
		c0,4.8-3.9,8.7-8.7,8.7H181.9z M185.1,17.1c4.1,0,7.5-3.3,7.5-7.5c0-4.2-3.4-7.5-7.5-7.5h-2.6v15H185.1z"/>
	<path fill="#FFFFFF" d="M203.1,1.4c0-0.3,0.3-0.6,0.6-0.6c0.3,0,0.6,0.3,0.6,0.6v16.3c0,0.3-0.3,0.6-0.6,0.6
		c-0.3,0-0.6-0.3-0.6-0.6V1.4z"/>
	<path fill="#FFFFFF" d="M216.2,18.3h-0.1c-0.3,0-0.5-0.3-0.5-0.6V1.4c0-0.3,0.3-0.6,0.6-0.6h0.1h3.2c4.8,0,8.7,3.9,8.7,8.8
		c0,4.8-3.9,8.7-8.7,8.7H216.2z M219.5,17.1c4.1,0,7.5-3.3,7.5-7.5c0-4.2-3.4-7.5-7.5-7.5h-2.6v15H219.5z"/>
	<path fill="#FFFFFF" d="M252.3,3.4v14.3c0,0.3-0.3,0.6-0.6,0.6c-0.3,0-0.6-0.3-0.6-0.6v-16c-0.1-0.2,0-0.5,0.2-0.7
		c0.3-0.2,0.7-0.1,0.8,0.1l10.6,14.7V1.6c0-0.3,0.3-0.6,0.6-0.6c0.3,0,0.6,0.3,0.6,0.6v16.1c0,0.3-0.3,0.6-0.6,0.6
		c-0.2,0-0.4-0.1-0.5-0.2c0,0-0.1-0.1-0.1-0.1L252.3,3.4z"/>
	<path fill="#FFFFFF" d="M274.1,1.4c0-0.3,0.3-0.6,0.6-0.6c0.4,0,0.6,0.3,0.6,0.6v9.8c0,3.2,2.6,5.8,5.8,5.8c3.2,0,5.9-2.6,5.9-5.8
		V1.4c0-0.3,0.3-0.6,0.6-0.6c0.3,0,0.6,0.3,0.6,0.6v9.8c0,3.9-3.2,7.1-7.1,7.1c-3.9,0-7-3.2-7-7.1V1.4z"/>
	<path fill="#FFFFFF" d="M299.3,18.3h-0.1c-0.3,0-0.5-0.3-0.5-0.6V1.4c0-0.3,0.3-0.6,0.6-0.6h0.1h3.2c4.8,0,8.7,3.9,8.7,8.8
		c0,4.8-3.9,8.7-8.7,8.7H299.3z M302.5,17.1c4.1,0,7.5-3.3,7.5-7.5c0-4.2-3.4-7.5-7.5-7.5h-2.6v15H302.5z"/>
	<path fill="#FFFFFF" d="M320.5,1.4c0-0.3,0.3-0.6,0.6-0.6c0.3,0,0.6,0.3,0.6,0.6v16.3c0,0.3-0.3,0.6-0.6,0.6
		c-0.3,0-0.6-0.3-0.6-0.6V1.4z"/>
	<path fill="#FFFFFF" d="M333,1.4c0-0.3,0.3-0.6,0.6-0.6h0.1h3.8c2.4,0,4.3,1.9,4.3,4.4c0,1.4-0.7,2.6-1.7,3.4
		c2,0.7,3.4,2.5,3.4,4.7c0,2.8-2.2,5-5,5h-4.9h-0.1h0c-0.3,0-0.6-0.3-0.6-0.6V1.4z M337.5,8.3c1.7,0,3.1-1.4,3.1-3.1
		c0-1.7-1.4-3.1-3.1-3.1h-3.3v6.2H337.5z M338.6,17.1c2.1,0,3.7-1.7,3.8-3.8c0-2.1-1.7-3.8-3.8-3.8h-4.4v7.5H338.6z"/>
	<path fill="#FFFFFF" d="M361.5,14.4c0-1.3-0.7-2.1-1.4-2.6c-0.8-0.5-1.7-0.8-2-0.9c-0.1,0-0.1,0-0.1,0h-4.2v6.9
		c0,0.3-0.3,0.6-0.6,0.6c-0.3,0-0.6-0.3-0.6-0.6V1.4c0-0.3,0.3-0.6,0.6-0.6h0.1h0.1h4.9c2.7,0,5,2.2,5,5c0,2-1.2,3.7-2.9,4.5
		c0.1,0.1,0.2,0.1,0.3,0.1c1.1,0.6,2.3,1.9,2.3,3.9c0,1,0.1,1.6,0.2,2c0.1,0.3,0.2,0.4,0.2,0.4c0.3,0,0.6,0.1,0.7,0.4
		c0.1,0.3-0.1,0.7-0.4,0.8c0,0-0.2,0-0.3,0h-0.1c-0.3,0-0.8-0.2-1.1-0.8C361.7,16.7,361.5,15.9,361.5,14.4z M358,2.1h-4.3v7.5h4.2
		h0.2c2-0.1,3.7-1.7,3.7-3.8C361.8,3.7,360.1,2.1,358,2.1z"/>
	<path fill="#FFFFFF" d="M383,13.8h-8l-1.6,4.1c-0.1,0.2-0.3,0.4-0.6,0.4c-0.1,0-0.1,0-0.2,0c-0.3-0.1-0.5-0.5-0.3-0.8l6.1-16.2
		c0.1-0.2,0.3-0.4,0.6-0.4c0.3,0,0.5,0.1,0.6,0.4l6.1,16.2c0.1,0.3,0,0.7-0.3,0.8c-0.1,0-0.1,0-0.2,0c-0.2,0-0.5-0.2-0.6-0.4
		L383,13.8z M375.5,12.6h7.1L379,3.2L375.5,12.6z"/>
	<path fill="#FFFFFF" d="M395.8,3.4v14.3c0,0.3-0.3,0.6-0.6,0.6c-0.3,0-0.6-0.3-0.6-0.6v-16c-0.1-0.2,0-0.5,0.2-0.7
		c0.3-0.2,0.7-0.1,0.8,0.1l10.6,14.7V1.6c0-0.3,0.3-0.6,0.6-0.6c0.3,0,0.6,0.3,0.6,0.6v16.1c0,0.3-0.3,0.6-0.6,0.6
		c-0.2,0-0.4-0.1-0.5-0.2c0,0-0.1-0.1-0.1-0.1L395.8,3.4z"/>
	<path fill="#FFFFFF" d="M427.1,0.6c2.1,0,4.1,0.7,5.6,1.9c0.3,0.2,0.3,0.6,0.1,0.9c-0.2,0.3-0.6,0.3-0.8,0.1c-1.4-1-3-1.7-4.9-1.7
		c-4.4,0-7.9,3.4-7.9,7.7c0,4.2,3.5,7.6,7.9,7.6c1.9,0,3.5-0.6,4.8-1.7c0.3-0.2,0.7-0.2,0.9,0.1c0.3,0.2,0.2,0.7-0.1,0.9
		c-1.5,1.2-3.5,1.9-5.6,1.9c-5,0-9.1-3.9-9.1-8.8C418,4.5,422.1,0.6,427.1,0.6z"/>
	<path fill="#FFFFFF" d="M453.3,10.2h-9v7.5c0,0.3-0.3,0.6-0.6,0.6c-0.3,0-0.6-0.3-0.6-0.6V1.4c0-0.3,0.3-0.6,0.6-0.6
		c0.3,0,0.6,0.3,0.6,0.6V9h9V1.4c0-0.3,0.3-0.6,0.6-0.6c0.3,0,0.6,0.3,0.6,0.6v16.3c0,0.3-0.3,0.6-0.6,0.6c-0.3,0-0.6-0.3-0.6-0.6
		V10.2z"/>
</g>
</svg>
